<?xml version="1.0"?>
<svg width="640" height="480" xmlns="http://www.w3.org/2000/svg" xmlns:svg="http://www.w3.org/2000/svg">
 <!-- Created with SVG-edit - http://svg-edit.googlecode.com/ -->
 <g>
  <title>Layer 1</title>
  <path d="m42,223c1.2215,-0.878662 2.056896,-1.289703 2.700001,-1.647339c0.853111,-0.474426 1.657871,-0.896439 2.466667,-1.185989c0.819347,-0.293335 1.843845,-0.302948 2.433331,-0.523834c0.8167,-0.30603 1.800003,-0.842834 2.400002,-1.142838c1,-0.5 1.599998,-0.800003 2.400002,-1.199997c1,-0.5 1.599998,-0.800003 2.599998,-1.300003c0.599998,-0.300003 1.399998,-0.699997 2.200001,-1.100006c0.799995,-0.399994 1.79673,-0.906677 2.404499,-1.199997c0.848206,-0.409363 1.813972,-0.807251 2.343666,-0.995499c0.786659,-0.279572 1.917145,-0.546036 2.666504,-0.729828c0.883743,-0.216751 1.625763,-0.600418 2.551994,-0.97467c0.785431,-0.317368 1.650726,-0.620651 2.234673,-0.88533c0.90976,-0.412369 1.796921,-0.943008 2.398666,-1.289337c0.598282,-0.34433 1.795021,-0.952332 2.399994,-1.189331c0.893028,-0.349838 1.802956,-0.62738 2.691002,-0.936005c0.839867,-0.291885 1.784622,-0.685089 2.458336,-1.099991c0.627312,-0.386322 1.416084,-0.813858 2.192329,-1.100006c0.855492,-0.315369 1.762627,-0.588028 2.658333,-0.91066c0.602997,-0.217209 1.804024,-0.748505 2.401337,-1.073334c0.613564,-0.333679 1.5382,-0.90181 2.565331,-1.349335c0.707527,-0.308273 1.46666,-0.540085 2.244003,-0.756012c0.788063,-0.218903 1.989746,-0.507736 2.780334,-0.710663c0.768074,-0.197144 1.502609,-0.375168 2.475662,-0.699997c0.835358,-0.27887 1.57473,-0.626053 2.666672,-1c0.632324,-0.216553 1.340576,-0.404388 2.087997,-0.636002c0.783394,-0.242767 1.981506,-0.678558 2.778664,-1.016663c0.802917,-0.340546 1.59742,-0.700943 2,-0.863342c1.192802,-0.481186 2.00119,-0.738556 2.820839,-0.963165c0.833145,-0.228302 2.145782,-0.521027 2.600494,-0.621002c0.931244,-0.204742 1.879898,-0.41571 2.35334,-0.535828c0.943886,-0.239487 2.306,-0.67923 2.738663,-0.847992c0.844727,-0.329483 1.637863,-0.695465 2.400002,-1.032013c1.062561,-0.469208 1.731255,-0.748703 2.748001,-1.073334c0.703316,-0.224564 1.881454,-0.511703 2.309334,-0.612c0.900902,-0.211166 1.852188,-0.428696 2.338333,-0.555832c1.495895,-0.391205 1.993103,-0.557892 2.990997,-0.895493c0.501068,-0.169525 1.498367,-0.52681 2,-0.694672c1.49527,-0.500366 2.49939,-0.771011 3,-0.899994c0.99881,-0.257355 1.50296,-0.366837 2.5,-0.636673c1.003098,-0.271469 2.001541,-0.596893 2.5,-0.773163c1.003189,-0.354752 1.501358,-0.550034 2.5,-0.944168c1.001373,-0.395203 1.997147,-0.797775 2.490997,-0.994171c0.96698,-0.384552 1.435272,-0.572952 2.338333,-0.919159c1.225693,-0.469894 1.962357,-0.737259 2.67067,-0.964508c0.702499,-0.225388 1.832367,-0.524887 2.671997,-0.722168c0.909653,-0.21373 1.391647,-0.314697 2.394165,-0.555832c0.522446,-0.125656 2.155914,-0.561584 2.717834,-0.726822c1.142899,-0.33609 1.715607,-0.517288 2.290665,-0.690674c1.140579,-0.343887 2.257645,-0.662521 2.804001,-0.804001c1.066742,-0.27623 1.596344,-0.394562 2.646667,-0.646667c0.527512,-0.126617 2.142075,-0.538712 2.695999,-0.695999c0.563431,-0.159988 1.70401,-0.503998 2.278671,-0.678665c0.574661,-0.174667 1.712646,-0.528076 2.833328,-0.833328c1.075577,-0.292969 1.599854,-0.412308 2.604172,-0.645844c0.479523,-0.111511 1.394287,-0.304459 2.619827,-0.620834c0.739731,-0.190964 1.439163,-0.412766 2.510666,-0.699997c1.171341,-0.313995 1.601624,-0.404816 2.504013,-0.599991c0.948242,-0.205093 1.436829,-0.300858 2.927994,-0.600006c0.499939,-0.100296 1.5,-0.300003 2.5,-0.5c0.5,-0.100006 1.5,-0.300003 2.5,-0.5c1,-0.199997 1.5,-0.300003 2.5,-0.5c1,-0.199997 1.5,-0.300018 3,-0.600006c0.5,-0.099991 1.5,-0.299988 2,-0.399994c1,-0.199997 2.500122,-0.49942 2.999496,-0.600006c0.987228,-0.198853 1.470276,-0.291962 2.392502,-0.5c0.853714,-0.192581 1.94458,-0.503098 2.5905,-0.704498c0.70401,-0.219513 1.588211,-0.460571 2.137497,-0.580826c1.375809,-0.301208 2.235809,-0.439133 3.190674,-0.598663c1.02977,-0.172043 2.11467,-0.341339 3.231003,-0.516006l1.126328,-0.174667l1.114334,-0.172668l1.080338,-0.168671" id="svg_24" stroke-linecap="null" stroke-linejoin="null" stroke-dasharray="null" stroke-width="5" stroke="#000000" fill="none"/>
  <path d="m89,201c1.833336,-0.166672 2.237724,-0.792694 3.099831,-1.000168c0.840126,-0.202179 1.256065,-0.970551 2.200172,-0.999832c0.899559,-0.027908 1.65377,-0.242142 2.399994,-0.647339c0.761124,-0.4133 1.742401,-0.084839 2.595505,-0.357162c0.820511,-0.261917 1.315117,-0.990158 2.204498,-0.995499c0.899986,-0.005402 1.850174,0.073044 2.47467,-0.425339c0.607964,-0.485184 1.435844,-0.44194 2.325333,-0.579163c0.931374,-0.143677 1.471672,-0.828735 2.399994,-0.990997c0.887459,-0.155121 1.609543,-0.625427 2.501335,-0.919174c0.920448,-0.303177 1.62455,-0.051971 2.632004,-0.085327c0.863586,-0.028595 1.592346,-0.665298 2.367996,-0.914673c0.922585,-0.296616 1.832771,0.025391 2.632004,-0.251999c0.811569,-0.281677 1.577339,-0.797058 2.488167,-0.833496c0.889175,-0.035568 1.882462,-0.209595 2.467827,-0.425171c1.051834,-0.38736 1.836586,-0.542267 2.694672,-0.575989c0.864471,-0.033966 1.722542,-0.434662 2.400002,-0.714676c0.911697,-0.376831 1.728317,-0.32988 2.720505,-0.636658c0.639496,-0.197723 1.814407,-0.55307 2.620819,-0.611343c0.820465,-0.05928 1.854034,-0.010849 2.538681,-0.046661c0.836838,-0.043777 1.836243,-0.370041 2.507996,-0.563995c1.049515,-0.303024 1.698273,-0.346558 2.769669,-0.425339c0.767075,-0.056412 1.960785,-0.151138 2.758331,-0.285339c0.80278,-0.135086 1.600952,-0.32135 2.399994,-0.515991c1.20163,-0.292694 1.600891,-0.400482 2.410675,-0.598663c0.824875,-0.201874 1.673279,-0.40625 3.01033,-0.699844c0.459854,-0.100983 1.381714,-0.296249 2.281662,-0.464157c0.841507,-0.156998 1.932663,-0.321075 2.821335,-0.410675c0.83342,-0.08403 1.776535,-0.188614 2.53334,-0.309326c0.861954,-0.137482 1.809692,-0.297607 2.313324,-0.363342c1.593292,-0.207977 2.150406,-0.238815 3.286499,-0.299988c0.578644,-0.031158 1.163879,-0.047958 2.347336,-0.105347c0.596954,-0.028946 1.796814,-0.101364 2.994171,-0.232666c0.597549,-0.065521 1.191833,-0.14299 2.365326,-0.325333c0.579437,-0.090042 1.151566,-0.185654 2.814835,-0.489334c0.538803,-0.098373 1.606354,-0.300797 2.141998,-0.399994c1.088699,-0.20163 1.647491,-0.305969 2.8125,-0.5c1.238968,-0.206345 1.889786,-0.301422 2.559998,-0.399994c0.689789,-0.101456 1.399826,-0.201309 2.130005,-0.300003c0.749817,-0.101349 2.309875,-0.300964 3.119339,-0.400009c0.825211,-0.100967 1.662628,-0.200226 2.507996,-0.299988c0.849304,-0.100235 1.69873,-0.199539 2.544006,-0.300003c0.837387,-0.099533 2.472137,-0.298859 3.262329,-0.400009c0.772476,-0.098877 1.528778,-0.199188 2.270996,-0.299988c0.730438,-0.099213 1.450729,-0.199585 2.16301,-0.300003c0.70639,-0.099579 2.80899,-0.400009 3.508987,-0.5c0.700012,-0.100006 1.400009,-0.199997 2.100006,-0.300003c0.699997,-0.100006 1.399994,-0.200027 3.5,-0.5c0.700165,-0.100021 1.401306,-0.200211 2.104507,-0.300003c0.706131,-0.100204 1.41626,-0.200409 2.131485,-0.300003c0.721115,-0.100418 1.44902,-0.202408 2.930679,-0.399994c1.518341,-0.202469 2.290451,-0.300369 3.069321,-0.399994c0.78479,-0.100372 1.574661,-0.200195 2.368515,-0.300003c0.796814,-0.100189 2.395493,-0.299942 3.196655,-0.400177c0.808167,-0.101105 1.630371,-0.204102 2.473511,-0.310486c0.871185,-0.109924 1.777374,-0.225006 2.725494,-0.346512c0.997208,-0.127808 3.166534,-0.409241 4.349335,-0.564163c1.239868,-0.162399 2.523636,-0.331512 3.838501,-0.503998c1.332794,-0.17485 2.670593,-0.349976 4.000504,-0.522003c1.308746,-0.169296 3.811356,-0.487122 4.98233,-0.631165c1.115692,-0.137238 2.18158,-0.264969 3.202499,-0.385498c0.980759,-0.115784 1.926666,-0.225388 2.842499,-0.331497c0.890823,-0.10321 2.617599,-0.303741 3.46199,-0.40451c0.831604,-0.099243 1.647186,-0.198593 2.443512,-0.299988c0.774689,-0.098633 1.524292,-0.1978 2.245483,-0.300003c0.690826,-0.0979 1.96701,-0.29718 2.547852,-0.400009c0.549805,-0.097321 1.074799,-0.199219 1.583984,-0.299988c0.501495,-0.099243 1.002411,-0.201477 1.512024,-0.300003c0.525055,-0.101517 1.655548,-0.302689 2.27533,-0.400009c0.654907,-0.102829 1.342438,-0.201584 2.057983,-0.299988c0.739136,-0.101639 1.498596,-0.20076 2.274017,-0.300003c0.787231,-0.100754 2.381989,-0.300064 3.186157,-0.400497c0.829163,-0.103561 1.708313,-0.213196 2.662506,-0.331512c1.054138,-0.130707 2.233307,-0.27623 3.5625,-0.439499c1.50412,-0.184769 5.137482,-0.628616 7.303986,-0.892502c2.365479,-0.288132 4.879028,-0.593796 7.489502,-0.911987c2.656525,-0.323807 5.308014,-0.64801 7.903503,-0.966003l2.488495,-0.306" id="svg_25" stroke-linecap="null" stroke-linejoin="null" stroke-dasharray="null" stroke-width="5" stroke="#000000" fill="none"/>
  <path d="m138,185c1.800003,0 2.699997,0 3.600006,0c0.899994,0 1.799988,0 2.699997,0c0.899994,0 1.738251,0.173553 2.5,-0.085327c0.887909,-0.301758 1.599457,-0.896667 2.5,-0.914673c0.899811,-0.01799 1.800003,0 2.699997,0c0.800003,0 1.725922,0.181488 2.600006,-0.035995c0.872696,-0.217133 1.716339,-0.885422 2.399994,-0.943176c0.97525,-0.082382 1.79866,-0.020828 2.699997,-0.020828c0.900009,0 1.820831,0 2.783997,0c0.690674,0 1.763336,0 2.682678,0c0.669327,0 1.833328,0 2.633331,0c0.800003,0 1.800003,0 2.599991,0c1,0 1.800003,0 2.800003,0c0.800003,0 1.800003,0 2.600006,0c0.800003,0 1.800003,0 2.599991,0c1,0 1.800003,0 2.800171,0c0.610504,0 1.485168,0 2.483841,0c0.815994,0 1.631989,0 2.631989,0c0.909332,0 1.850677,0 2.641174,0c0.8535,0 2.042831,0 2.642838,0c0.899994,0 1.799988,0 2.699997,0c0.899994,0 1.800003,0 2.699997,0c0.899994,0 1.800003,0 2.399994,0c1.198669,0 2.079178,0 2.914673,0c1.001328,0 1.685333,0 2.852005,0c0.785995,0 1.608002,0 2.666656,0c0.714005,0 1.619339,0 2.588165,0c0.814499,0 1.683014,0 2.578506,0c0.895493,0 1.764008,0 2.833328,0c0.714005,0 1.619339,0 2.588165,0c0.814499,0 1.683014,0 2.578506,0c0.895493,0 1.764008,0 2.833328,0c0.714005,0 1.619354,0.006165 2.588165,-0.000168c0.814545,-0.005325 1.688263,-0.02034 2.578506,-0.166504c0.906876,-0.148895 1.795517,-0.428574 2.399994,-0.549332c1.192566,-0.238235 1.802368,-0.289307 2.700012,-0.222336c1.207214,0.090073 1.796814,0.304306 2.699997,0.513c1.196045,0.276352 1.801453,0.360825 2.741669,0.40451c0.672134,0.031219 1.791656,0.020828 2.626328,0.020828c0.88266,0 1.781342,0 2.226669,0c1.272003,0 2.390991,0 3.06366,0c0.939011,0 1.841675,0 2.741669,0c0.600006,0 1.800003,0 2.699997,0c0.600006,0 1.5,0 2.697342,0c0.861008,0 1.632004,0 2.597336,0c0.773315,0 1.819672,0 2.626648,0c0.58136,0 1.777344,0 2.657837,0c0.83551,0 1.836853,0 2.746185,0c0.941315,0 1.731812,0 2.585327,0c0.590668,0 1.786652,0 2.647675,0c0.770996,0 1.890991,0 2.875,0c0.676483,0 1.451996,0 2.5,0c0.941315,0 1.619385,-0.009949 2.850647,0.001328c0.541412,0.004959 1.380585,-0.025436 2.632019,0.282669c0.696472,0.171478 1.357849,0.492645 2.370667,0.630676c0.849548,0.115784 1.799988,0.084656 2.834503,0.085327c0.72699,0.000473 1.457977,0 2.509491,0c0.926483,0 1.708008,0 2.652008,0c1.001312,0 1.817322,0 2.633331,0c0.998657,0 1.873322,0 2.884003,0c0.799988,0 1.799988,0 2.599976,0c0.800018,0 1.80658,-0.057861 2.600006,0.057159c1.018646,0.147675 1.652191,0.485168 2.455994,0.658844c0.998169,0.215668 1.806152,0.237015 2.664856,0.263168c0.878082,0.026733 2.145813,0.020828 2.905823,0.020828c0.679993,0 1.549988,0 2.604004,0c0.85199,0 1.805328,0 2.570648,0c1.003174,0 1.634674,0 2.820007,0c0.804016,0 1.626007,0 2.657166,0c0.685516,0 1.520172,0 2.530518,0c0.905334,0 1.724335,0 2.69632,0c0.694672,0 1.726685,0 2.651825,0l0.781525,0l0.944,0" id="svg_26" stroke-linecap="null" stroke-linejoin="null" stroke-dasharray="null" stroke-width="5" stroke="#000000" fill="none"/>
  <path d="m229,183c1.221497,-0.878494 2.153473,-0.818665 3,-1.166672c0.671082,-0.275894 1.507263,-0.725021 2.41066,-0.843994c0.926727,-0.122055 1.555435,-0.592621 2.567841,-0.867828c0.701035,-0.190567 1.640518,0.042847 2.5215,-0.142334c0.851639,-0.179001 1.658157,-0.874619 2.5,-0.958344c0.829498,-0.082489 1.707001,0.094223 2.636002,-0.056824c0.873337,-0.141998 1.55249,-0.623505 2.563828,-0.842499c0.768021,-0.166306 1.778671,-0.121506 2.598831,-0.121506c0.901337,0 1.738846,0.034058 2.686676,-0.283997c0.740799,-0.248581 1.710205,-0.636566 2.493835,-0.695175c0.996933,-0.07457 1.773483,-0.020828 2.673508,-0.020828c0.863312,0 1.847321,0 2.66864,0c0.853333,0 1.793335,0 2.778839,0c0.785187,0 1.73584,0 2.50116,0c0.994171,0 1.741516,0 2.773346,0c0.946655,0 1.626404,0.045792 2.604004,-0.000168c0.908325,-0.042709 1.662872,-0.395737 2.425842,-0.647171c0.978638,-0.32251 1.812958,-0.386475 2.795502,-0.131332c0.819946,0.212921 1.794708,0.646606 2.399994,0.721512c0.795654,0.098465 1.799988,0.057159 2.600006,0.057159c1,0 1.800018,-0.006668 2.799988,0c0.800049,0.005341 1.613312,0.039764 2.600006,0.352661c0.812653,0.257706 1.796173,0.594986 2.563995,0.636673c0.94931,0.051529 1.950714,-0.076935 2.721344,0.095993c0.796997,0.178833 1.500122,0.647141 2.514648,0.829346c0.790833,0.142029 1.802673,0.037964 2.600006,0.106155c1.006897,0.086121 1.783447,0.454819 2.600006,0.695175c0.979462,0.2883 1.746643,0.205139 2.647339,0.288498c0.929535,0.086029 1.725311,0.574326 2.585999,0.828827c0.774078,0.228882 1.830078,0.113953 2.571167,0.223831c1.009949,0.149734 1.572357,0.522629 2.59549,0.776169c0.776581,0.192444 1.862946,-0.007309 2.695496,0.223831c0.775055,0.215179 1.625824,0.822617 2.325348,0.942841c0.978882,0.168228 1.763123,0.473907 2.579163,0.716003c0.979797,0.29068 1.786011,0.229416 2.642822,0.636658c0.810028,0.384995 1.51532,0.608917 2.414337,0.65184c0.946533,0.045181 1.738831,0.286667 2.506836,0.57016c0.948761,0.35022 1.723236,0.500458 2.671997,0.850677c0.768005,0.283493 1.758331,0.538254 2.506836,0.57016c1.020355,0.043488 1.800293,0.398575 2.542511,0.720505c0.901337,0.390945 1.716583,0.252762 2.714661,0.288498c0.801208,0.028687 1.799316,0.277802 2.37915,0.495499c1.000427,0.375595 1.819519,0.499329 2.778015,0.5c0.895508,0.000626 1.596832,-0.106873 2.617493,0.010666c0.963623,0.110962 1.622162,0.570679 2.625336,0.822662c0.77597,0.194916 1.514679,0.166 2.589325,0.166672c0.910675,0.000565 1.821442,-0.013779 2.731995,0.000168c0.678925,0.010391 1.621155,0.294846 2.431335,0.647171c0.868713,0.377777 1.594666,0.347961 2.611359,0.352661c0.935974,0.004318 1.774353,0.386078 2.435974,0.716003c0.843384,0.420563 1.819214,0.118774 2.700012,0.304825c0.847382,0.178986 1.600006,0.857666 2.299988,0.977844l0.900024,0.058487l0.799988,0.442841" id="svg_27" stroke-linecap="null" stroke-linejoin="null" stroke-dasharray="null" stroke-width="5" stroke="#000000" fill="none"/>
  <path d="m254,181c1.800003,0 2.700012,0 3.600006,0c0.810669,0 1.721497,0 2.610657,0c0.989349,0 1.789337,0 2.789337,0c0.799988,0 1.600006,0 2.600006,0c0.799988,0 1.799988,0 2.600006,0c1.000153,0 1.820831,0 2.485321,0c1,0 1.83551,0 2.716003,0c0.898499,0 1.787994,0 2.64151,0c1.035645,0 1.93631,0 2.957153,0c0.799988,0 1.600006,0 2.609009,0c0.662994,0 1.724335,0 2.700836,0c0.710999,0 1.441986,0 2.523499,0c1.009491,0 1.645813,0 2.565338,0c0.901306,0 1.801331,0 2.701324,0c0.899994,0 1.795502,0 2.664001,0c1.069336,0 1.787811,0 2.745819,0c0.823517,0 1.800018,0 2.511017,0c0.730988,0 2.157837,0 2.826477,0c0.652679,0 1.636688,0 2.674194,0c0.735657,0 1.499329,0 2.28299,0c1.195496,0 1.995483,0 2.795502,0c0.799988,0 1.600006,0 2.799652,0c0.791351,0 1.928345,0 2.629669,0c1.202667,0 1.970673,0 2.738678,0c0.875,0 1.903992,0 2.65332,0c0.781342,0 1.978668,0 2.778687,0c0.799988,0 1.599976,0 2.799988,0c0.799988,0 1.600006,0 2.399994,0c0.800018,0 1.999847,0 2.795502,0c0.783661,0 1.547333,0 2.637848,0c1.005005,0 1.625,0 2.47998,0c1.003998,0 1.947998,-0.001114 3.02002,0c0.637329,0.000671 1.34021,-0.018204 2.475647,0.057159c1.19342,0.079208 1.991699,0.222977 2.791016,0.368179c0.40036,0.072723 1.195648,0.252426 2.399994,0.40799c0.796326,0.102859 1.590942,0.120224 2.742828,0.219345c1.092407,0.094009 1.774017,0.227432 2.431824,0.372665c0.979309,0.216217 1.99054,0.421783 2.708008,0.490662c1.094666,0.105087 1.814789,0.085709 2.783997,0.250671c0.836609,0.142395 1.571869,0.465439 2.666687,0.666656c0.63208,0.116165 1.709076,0.156357 2.475647,0.219345c1.192444,0.097977 1.990662,0.225983 2.780334,0.372665c0.775665,0.144089 1.52121,0.320297 2.589355,0.453323c0.99292,0.123657 1.648468,0.128998 2.305328,0.205338c1.407562,0.163589 2.1633,0.34906 2.962646,0.526672c0.415344,0.0923 1.719482,0.391754 2.63736,0.589325c0.940796,0.202499 1.416504,0.297592 2.363312,0.5c1.38678,0.296463 1.830658,0.401291 2.69101,0.595505c0.819702,0.185043 1.594757,0.380417 2.695007,0.537827c1.010071,0.144501 1.668884,0.143753 2.650665,0.250671c1.040253,0.113281 1.770782,0.263687 2.515991,0.436829c0.749603,0.174164 1.834808,0.474274 2.847321,0.779175c0.653625,0.196838 1.302216,0.410889 2.673859,0.800003c0.725372,0.20578 1.460419,0.391525 2.168976,0.599991c0.980011,0.28833 1.800812,0.598129 2.524506,0.900009c0.953033,0.397537 1.743469,0.710617 2.632019,1c0.637543,0.207642 1.674103,0.501999 2.405975,0.699997c0.746796,0.202042 1.499573,0.382874 2.926025,0.800171c0.671051,0.196304 1.329407,0.399521 2.305328,0.785156c1.046478,0.413528 1.768646,0.767334 2.515991,1.11467c0.747345,0.347336 1.106232,0.539337 2.513336,1.11467c0.635742,0.259949 1.532135,0.56279 2.320007,0.88533c0.950439,0.389099 1.62796,0.742615 2.587982,1.321335c0.536285,0.323273 1.349579,0.859344 1.894684,1.194672c0.993286,0.611038 1.689606,0.974167 2.367981,1.367996c1.008545,0.58551 1.541351,0.94133 2.363342,1.463333l0.786011,0.485992l0.713989,0.414001l0.678009,0.378006" id="svg_28" stroke-linecap="null" stroke-linejoin="null" stroke-dasharray="null" stroke-width="5" stroke="#000000" fill="none"/>
  <path d="m293,181c1.799988,0 2.700012,0 3.600006,0c0.899994,0 1.799988,0 2.699982,0c0.900024,0 1.800751,-0.036652 2.700012,0c0.701752,0.02861 1.422363,0.686203 2.299988,0.942841c0.865601,0.253128 1.854279,-0.126114 2.700012,0.223831c0.784637,0.324661 1.53595,0.784622 2.32132,1.054657c0.873413,0.300293 1.652985,0.690338 2.477356,0.777344c0.898254,0.094788 1.678253,0.613205 2.522644,0.87999c0.825623,0.260864 1.752289,0.478439 2.477356,0.837341c0.730347,0.361511 1.703888,0.439346 2.563812,0.641159c0.660461,0.154999 1.347931,0.31311 2.594513,0.742676c0.778625,0.268311 1.413818,0.633682 2.441681,0.814835c0.933228,0.164459 1.870453,-0.004715 2.767975,0.251999c0.693695,0.19841 1.421295,0.662781 2.437836,1.12883c0.623779,0.28598 1.559601,0.557281 2.348175,0.651825c0.819824,0.098282 1.889862,0.188339 2.81134,0.478012c0.63858,0.200745 1.639465,0.467621 2.436005,0.599991c1.005249,0.167053 1.779724,0.54306 2.799988,0.807999c0.595398,0.154617 1.464783,0.180389 2.421661,0.388168c0.833038,0.180893 1.421814,0.400177 2.744995,0.778503c0.715668,0.204636 1.456268,0.400024 2.208008,0.563995c0.739105,0.161209 2.139832,0.354141 2.789337,0.410675c0.931213,0.081055 1.843689,0.158829 2.731506,0.382492c0.877319,0.221024 1.420013,0.442032 2.420502,0.841507c0.910095,0.363388 1.847839,0.656372 2.64566,0.748657c0.882568,0.102097 1.52887,0.110184 2.559662,0.27417c0.734558,0.116867 1.482635,0.283966 2.594666,0.579834c1.066711,0.283813 1.727844,0.507065 2.384003,0.677841c0.979187,0.254837 2.020569,0.408005 2.752655,0.468155c0.746674,0.061356 1.502472,0.048889 2.92569,0.274002c0.664673,0.105133 1.565857,0.394958 2.654999,0.612c0.709076,0.141312 1.401245,0.142181 2.588318,0.388168c0.545197,0.112976 1.423828,0.393265 2.065002,0.579834c1.396118,0.40625 2.146515,0.600983 2.924011,0.762665c0.788025,0.163864 1.988678,0.322617 2.789337,0.383331c0.799438,0.060623 1.603394,0.073853 2.799988,0.219345c0.802826,0.09761 1.202026,0.180954 2,0.354156c0.802124,0.174103 1.999298,0.48204 2.798676,0.677841c0.789948,0.193497 1.561523,0.385818 2.315979,0.515991c1.395294,0.240738 2.06662,0.226639 3.038025,0.395172c1.023041,0.17749 1.736633,0.452667 2.493988,0.751495c0.802887,0.316788 1.632782,0.676849 2.519989,0.972c0.910461,0.302887 1.85791,0.53389 2.333344,0.645844c0.945831,0.222733 2.333618,0.519638 2.778656,0.620834c0.869232,0.197662 1.720764,0.402527 2.574005,0.599991c1.31311,0.303894 1.76825,0.402786 2.704498,0.600006c0.963074,0.202866 1.453369,0.300766 2.444183,0.5c0.998505,0.200775 1.994446,0.399673 2.485168,0.495499c0.950623,0.185623 1.838379,0.370911 3.013489,0.537827c0.935028,0.132813 1.744293,0.161911 2.833344,0.333344c0.641663,0.101013 1.34967,0.267838 2.123993,0.444c0.831024,0.189056 2.16391,0.490494 2.627991,0.589325c0.950195,0.202362 1.925262,0.400452 2.419159,0.5c1.495239,0.301361 1.995514,0.399231 2.991028,0.600006c0.493896,0.099609 1.469391,0.295639 2.419159,0.5c1.365204,0.293747 1.800629,0.397232 2.649323,0.599991c0.825989,0.197327 1.634521,0.400589 2.836182,0.700012c0.80423,0.200394 1.620148,0.402191 2.457001,0.599991c0.427887,0.101135 1.763855,0.402222 2.699982,0.600006c0.478607,0.10112 1.453369,0.300766 2.444183,0.5c0.998505,0.200775 1.997406,0.399506 2.494171,0.5c0.983826,0.199036 1.947693,0.398209 2.419159,0.5c1.36496,0.294693 2.226501,0.503174 3.064484,0.679169c0.814819,0.171143 2.02005,0.362228 2.824829,0.438156c0.409149,0.038605 1.260895,0.081894 2.167511,0.192505c1.533386,0.187073 2.093536,0.328323 2.680511,0.459503c0.607086,0.135666 1.84845,0.449814 2.471985,0.615997c0.618469,0.164841 2.375397,0.650238 2.911499,0.792999c0.991913,0.264145 1.453278,0.389725 2.33252,0.574997c0.825195,0.173874 2.031342,0.333282 2.832001,0.393997c0.799438,0.060623 1.603394,0.073853 2.799988,0.219345c0.802826,0.09761 1.601715,0.261749 2.399994,0.444c0.801788,0.18306 1.998627,0.494843 2.800018,0.68483c0.798676,0.189346 1.595276,0.379868 2.799988,0.537827c0.7948,0.104218 1.579102,0.135361 2.328003,0.192001c0.701782,0.05307 1.913879,0.254669 2.485321,0.421341c1.038605,0.302933 1.462921,0.454514 2.52002,0.720001c1.336823,0.335739 2.096649,0.487488 2.890656,0.658661c0.817322,0.176208 1.645294,0.349442 2.468994,0.522003c0.805634,0.168777 2.30722,0.485016 2.977844,0.630997c0.615997,0.134094 1.180542,0.265137 2.183319,0.479996c0.860718,0.184433 1.977997,0.385437 2.657837,0.457672c0.924103,0.098206 1.741974,0.087769 2.682678,0.436661c0.801086,0.297119 1.816589,0.581558 2.590668,0.672668c1.050232,0.123596 1.766479,0.320236 2.440002,0.585342c0.947876,0.373108 1.718811,0.712341 2.549316,0.953323c1.049133,0.304413 1.782166,0.378845 2.522705,0.461334c1.203491,0.134048 1.95636,0.250839 2.778625,0.410675c0.849915,0.165207 1.681763,0.331894 2.759338,0.663834c0.854553,0.263229 1.494019,0.542999 2.407532,0.847488l0.857117,0.274002l0.700012,0.494675" id="svg_29" stroke-linecap="null" stroke-linejoin="null" stroke-dasharray="null" stroke-width="5" stroke="#000000" fill="none"/>
  <path d="m340,188c1.700012,0.057159 2.422363,0.686203 3.299988,0.942841c0.865601,0.253128 1.848907,-0.112823 2.700012,0.223831c0.702637,0.277924 1.498169,0.678772 2.347321,0.886002c0.921661,0.22493 1.5271,0.701157 2.478027,0.921997c0.999512,0.232132 1.577545,0.714386 2.479156,0.96817c0.980499,0.276001 1.731659,-0.002136 2.695496,0.223831c0.818573,0.19191 1.590759,0.593491 2.59549,0.780655c0.741974,0.138229 1.64389,0.421463 2.288513,0.854004c0.763977,0.512634 1.52005,0.899567 2.515991,1.398666c0.599731,0.300552 1.593079,0.814484 2.200012,1.095505c0.791412,0.36644 1.803497,0.597397 2.600006,0.729828c1.005249,0.167145 1.605652,0.398483 2.399994,0.776001c1.007446,0.478806 1.578735,0.840683 2.600006,1.077332c0.788239,0.182648 1.804749,0.273743 2.599976,0.546677c0.805084,0.276306 1.802856,0.502701 2.400024,0.599991c1.005798,0.163849 1.80188,0.491577 2.799988,0.97467c0.605652,0.293137 1.444794,0.700821 2.421173,0.878662c0.786346,0.143219 1.605957,0.046097 2.609497,0.405334c0.757202,0.271057 1.631958,0.629974 2.37384,0.768677c1.004913,0.187866 1.794495,0.560074 2.59549,0.947327c0.809662,0.391434 1.444641,0.701584 2.421326,0.878662c0.796753,0.144455 1.639343,0.106552 2.657349,0.342667c0.937653,0.217484 1.596802,0.543427 2.606659,0.694672c0.830444,0.124374 1.722626,0.130051 2.614502,0.305496c0.897797,0.17662 1.750366,0.464035 2.533508,0.778503c0.940033,0.377457 1.553558,0.717728 2.567993,1.198669c0.614502,0.291336 1.27536,0.569122 2.546844,0.748657c0.78653,0.111069 1.724121,0.205917 2.530975,0.552673c0.848511,0.364655 1.55719,0.426056 2.520844,0.666672c0.828796,0.20694 1.448792,0.558899 2.421326,0.933167c0.797516,0.306915 1.616669,0.58844 2.657349,0.778824c0.691101,0.126434 1.61261,0.171906 2.604004,0.405334c0.803284,0.189133 1.546204,0.439499 2.507477,0.66333c0.974762,0.226959 1.651154,0.501297 2.496521,0.854004c0.991241,0.413559 1.541687,0.5905 2.360657,0.898666c1.035278,0.389557 1.706177,0.756012 2.636658,1.014664c0.982788,0.273193 1.820984,0.246338 2.632019,0.369339c1.009796,0.153137 1.700806,0.447784 2.453339,0.717331c0.868866,0.311218 1.878967,0.597717 2.579987,0.762665c0.680511,0.160126 1.882538,0.341644 2.629822,0.436005c1.189697,0.150223 1.710999,0.264954 2.520844,0.520828c0.822784,0.259964 1.814758,0.682053 2.5,0.979172c1.16452,0.504929 1.677887,0.712631 2.479156,0.979172c0.747253,0.248581 1.869751,0.499557 2.854187,0.520828c0.676331,0.014618 1.46347,-0.035797 2.5,0.166672c1.021454,0.199524 1.603851,0.461243 2.362671,0.634659c0.965851,0.220734 2.191711,0.400604 2.87265,0.498672c0.708405,0.10202 1.431458,0.199036 2.153992,0.300003c0.708801,0.099045 1.398285,0.1521 3.126831,0.499832c0.855438,0.172089 1.760864,0.518799 2.650513,0.73349c0.789703,0.190567 1.61319,0.205734 2.600006,0.519333c0.8125,0.258209 1.600922,0.520157 2.399994,0.647339c1.00119,0.159348 1.817047,0.447342 2.514343,0.704498c1.121735,0.413681 1.787964,0.60289 2.485657,0.774673c1.027832,0.253067 1.954041,0.429703 2.717346,0.484833c1.113678,0.080444 1.921509,0.02916 2.767975,0.319992c0.739014,0.253906 1.714508,0.594498 2.493835,0.695175l0.999329,0.020828l0.82019,0" id="svg_30" stroke-linecap="null" stroke-linejoin="null" stroke-dasharray="null" stroke-width="5" stroke="#000000" fill="none"/>
  <path d="m408,203c1,1.166672 1.69043,1.424057 2.479156,2c0.640289,0.467529 1.254669,1.002991 1.931519,1.436005c0.794495,0.508286 1.379364,1.044189 2.422668,1.397324c0.771912,0.261276 1.658234,0.4384 2.377319,0.777344c0.998383,0.470596 1.589447,0.789063 2.389343,1.189331c0.798798,0.399734 1.592102,0.756866 2.378662,1.300003c0.672638,0.464462 1.47998,1.157257 2.231995,1.463989c0.961121,0.392029 1.808746,0.294571 2.622681,0.602676c0.819946,0.310379 1.325134,1.086029 2.052002,1.633331c0.732697,0.551697 1.503326,0.909073 2.514648,1.115997c0.791077,0.16185 1.615021,0.20961 2.399994,0.520004c0.817871,0.32341 1.650269,0.679718 2.328003,1.164001c0.844666,0.603577 1.278412,1.564926 1.913666,1.879166c0.915771,0.453018 1.767181,0.443436 2.55835,0.604828c1.015717,0.207199 1.600433,0.525818 2.600159,1.016006c0.610748,0.299469 1.479858,0.713547 2.483826,1.099991c0.538605,0.207306 1.37326,0.475311 2.394348,0.900009c0.682007,0.283661 1.447144,0.682938 2.296326,1.299988c0.803802,0.584091 1.436218,1.05629 2.226654,1.314667c0.97049,0.31723 1.781616,0.237305 2.64151,0.638c0.911591,0.424789 1.559784,0.726898 2.298828,1.168167c0.794556,0.474411 1.719666,0.879166 2.243683,1.079178c1.048004,0.400009 1.778107,0.653275 2.553009,1.099991c0.938202,0.540848 1.687958,1.062454 2.361664,1.352676c0.841766,0.362625 1.620758,0.838531 2.466644,1.113998c0.853424,0.277908 1.672333,0.644653 2.458679,0.858658c0.866913,0.235931 1.584656,0.586716 2.574493,1.074509c0.589111,0.290314 1.657745,0.655441 2.389496,0.925491c0.848083,0.312988 1.656769,0.774673 2.410675,1.141342c0.763611,0.371399 1.540802,0.770874 2.32132,1.054825c0.881378,0.320648 1.615051,0.939743 2.268005,1.342499c0.843384,0.520203 1.41272,1.045563 2.115173,1.488678c0.771912,0.486923 1.641449,0.830017 2.270172,1.372665c0.600189,0.518005 1.325317,0.927322 2.125153,1.453323l0.778839,0.342667" id="svg_31" stroke-linecap="null" stroke-linejoin="null" stroke-dasharray="null" stroke-width="5" stroke="#000000" fill="none"/>
  <path stroke="#000000" d="m473,246c-1.221344,0.878662 -1.738831,1.608322 -2.436005,1.964005c-0.766449,0.391037 -1.505188,0.613342 -2.174652,1.061325c-0.735443,0.492126 -1.635437,0.774673 -2.389343,1.141342c-0.763611,0.371399 -1.517731,0.795349 -2.304504,1.185989c-0.884094,0.43898 -1.558746,0.479614 -2.528839,0.814011c-0.73114,0.252029 -1.48642,0.86705 -2.417328,1.222656c-0.734253,0.280472 -1.619904,0.431015 -2.497498,0.663345c-0.922607,0.244247 -1.608612,0.63739 -2.367828,1.145996c-0.644928,0.432053 -1.557556,0.652344 -2.399994,0.885345c-0.881042,0.243683 -1.6922,0.827209 -2.469849,1.025818c-0.849213,0.216888 -1.635529,0.458069 -2.551483,0.740845c-0.483521,0.149261 -1.447876,0.476593 -2.796021,0.815979c-0.72113,0.181549 -1.590179,0.274719 -2.261322,0.416016c-1.014374,0.213562 -1.736115,0.603851 -2.652679,0.864655c-0.909027,0.258667 -1.59375,0.50177 -2.439331,0.854004c-0.991028,0.412811 -1.808258,0.695892 -2.360657,0.841492c-1.023529,0.269775 -2.017792,0.362854 -2.576843,0.46701c-1.048157,0.195251 -1.915009,0.453308 -2.887817,0.751495c-0.509857,0.156281 -1.53476,0.489716 -2.037354,0.656006c-1.386841,0.458832 -2.174805,0.735535 -2.888153,0.94101c-0.953094,0.274536 -1.861481,0.430237 -2.762512,0.516327c-0.599396,0.057281 -1.803589,0.175385 -2.699982,0.377991c-0.602631,0.13623 -1.49469,0.396088 -2.399994,0.526001c-0.895966,0.128571 -1.805298,0.138184 -2.700012,0.287994c-0.897705,0.150299 -1.71936,0.441742 -2.666656,0.666687c-0.826843,0.19635 -1.879181,0.385223 -2.397186,0.537323c-0.708405,0.208008 -1.673676,0.506378 -2.277496,0.686676c-1.491241,0.445251 -2.392944,0.707855 -3.38266,0.993317c-1.054901,0.304291 -2.154022,0.617004 -3.276001,0.928497c-1.120697,0.311157 -2.218842,0.612793 -3.276001,0.883514c-1.887451,0.483368 -2.68631,0.658112 -3.386658,0.797333c-0.611877,0.121643 -1.152008,0.206665 -1.628998,0.277496l-0.427002,0.055847l-0.389008,0.045807l-0.363007,0.040833" id="svg_32" stroke-linecap="null" stroke-linejoin="null" stroke-dasharray="null" stroke-width="5" fill="none"/>
  <path d="m485,240c-1.700012,0.057159 -2.468628,0.561447 -3.299988,0.947327c-0.87204,0.404755 -1.469543,0.886734 -2.110687,1.452667c-0.723602,0.638702 -1.400208,1.05629 -2.190643,1.314667c-0.97049,0.31723 -1.793793,0.212891 -2.646027,0.642502c-0.693176,0.349442 -1.585602,1.048706 -2.157166,1.342834c-0.988983,0.508911 -1.73877,0.924072 -2.574158,1.178665c-0.888,0.27063 -1.679779,0.485992 -2.483002,0.825836c-0.955933,0.404449 -1.764893,0.692184 -2.312988,0.895508c-1.061066,0.3936 -1.772797,0.690338 -2.62085,1.099991c-0.809143,0.390854 -1.618927,0.814636 -2.289825,1.100006c-0.988373,0.42041 -1.786377,0.704407 -2.545319,0.914658c-0.955719,0.264755 -1.745911,0.338455 -2.779175,0.642502c-0.782715,0.230316 -1.826355,0.636139 -2.537506,0.942841c-0.680786,0.29361 -1.616119,0.708618 -2.409821,1c-0.561493,0.206116 -1.444122,0.500198 -2.642853,0.899994c-0.599976,0.200104 -1.500458,0.498642 -2.399994,0.800003c-0.891449,0.298645 -1.475464,0.459259 -2.22934,0.799988c-0.990662,0.447754 -1.721222,1.037048 -2.541321,1.400024c-0.7565,0.334839 -1.630341,0.605042 -2.529327,0.899811c-0.898376,0.294586 -1.489746,0.51474 -2.700012,0.733521c-0.596008,0.107727 -1.502838,0.140381 -2.399994,0.250671c-0.903625,0.111084 -1.803772,0.339722 -2.700012,0.620483c-0.903961,0.283173 -1.796967,0.591248 -2.37915,0.795502c-0.837677,0.293884 -1.836853,0.700012 -2.520844,1c-0.68399,0.299988 -1.682922,0.706848 -2.520844,1c-0.878021,0.307159 -1.779144,0.599976 -2.679169,0.899994c-0.599976,0.200012 -1.800598,0.598236 -2.398651,0.800018c-0.881378,0.297363 -1.447266,0.492096 -2.481171,0.900146c-0.771851,0.304626 -1.392731,0.551727 -2.201508,0.785187c-1.046265,0.302002 -2.391602,0.600403 -3.144501,0.767334c-0.787109,0.1745 -1.595032,0.347229 -2.407501,0.521973c-0.802521,0.172577 -1.581848,0.33316 -3,0.658691c-0.616821,0.141602 -1.171936,0.266937 -2.104004,0.53067c-0.755371,0.213715 -1.894836,0.638763 -2.605499,0.931488c-0.851288,0.350647 -1.861847,0.584564 -2.621155,0.729828c-0.822998,0.15744 -1.564514,0.708588 -2.49765,0.921997c-0.786621,0.179901 -1.761871,0.26828 -2.606354,0.488678c-0.651855,0.170105 -1.385834,0.38092 -2.695648,0.663818c-0.484467,0.104645 -1.490631,0.29184 -1.99469,0.379333c-0.968567,0.168121 -2.209778,0.343689 -3.060333,0.46817c-0.861603,0.126099 -1.799011,0.531708 -2.582642,0.768677c-0.976074,0.295166 -1.742859,0.237915 -2.655029,0.288483c-0.801147,0.044403 -1.795868,0.278534 -2.419647,0.420837c-0.96637,0.22049 -2.059509,0.453186 -2.761505,0.553833l-0.962494,0.020844l-0.895508,0.004486l-0.679169,0.420837" id="svg_34" stroke-linecap="null" stroke-linejoin="null" stroke-dasharray="null" stroke-width="5" stroke="#000000" fill="none"/>
  <path d="m410,269c-1.700012,0 -2.600006,0 -3.5,0c-0.910675,0 -1.821503,0 -2.710663,0c-0.989166,0 -1.768494,0 -2.768005,0c-0.773987,0 -1.684753,-0.052734 -2.425842,0.057159c-1.009949,0.14975 -1.773346,0.603424 -2.795502,0.82135c-0.788574,0.168121 -1.799988,0.12149 -2.610657,0.12149c-0.646484,0 -1.610657,0 -2.414673,0c-0.821991,0 -2.09198,0 -2.795502,0c-0.748505,0 -1.948486,0 -2.640503,0c-0.723999,0 -1.456024,-0.009369 -2.853333,0.001343c-0.649384,0.004974 -1.586151,0.01825 -2.485321,0.165314c-0.906952,0.148346 -1.795563,0.428284 -2.399994,0.549347c-1.192657,0.238892 -1.799622,0.262054 -2.700012,0.27951c-1.199432,0.023254 -2.078674,0.004425 -2.885651,0.004486c-0.871674,0.000092 -1.671844,0.005768 -2.557343,0.221344c-0.735535,0.179077 -1.557007,0.478516 -2.75766,0.657166c-0.613922,0.09137 -1.643311,0.114899 -2.440674,0.120148c-0.925293,0.006104 -1.994659,0.001343 -2.569336,0.001343c-0.590668,0 -1.787994,0 -2.378662,0c-1.644012,0 -2.124634,-0.010437 -2.977509,0.004486c-1.05481,0.018433 -2.171387,0.144287 -2.884979,0.348175c-0.714813,0.204224 -1.77948,0.498779 -2.418854,0.562012c-0.699646,0.069183 -1.838318,0.083069 -3.029327,0.085327c-0.799988,0.001495 -1.600006,0 -2.399994,0c-0.800018,0 -2.000244,-0.005737 -2.804504,0.004486c-0.816437,0.010376 -1.232788,0.013092 -2.080841,0.080841c-1.338654,0.106964 -2.267456,0.26651 -2.73999,0.339996c-0.949615,0.147675 -1.888092,0.313782 -3.25351,0.453339c-0.437805,0.044739 -1.306671,0.093048 -2.182495,0.146667c-0.908173,0.055603 -1.872833,0.134308 -2.90799,0.258667c-0.540955,0.065002 -1.651245,0.218079 -2.216003,0.29068c-1.1315,0.145477 -2.24762,0.263641 -2.792999,0.303986c-1.059326,0.078339 -2.080139,0.118866 -2.575012,0.146667c-0.960266,0.053925 -2.325897,0.191162 -2.761322,0.258667c-0.850861,0.131897 -1.672119,0.306213 -2.484009,0.432007c-1.198181,0.185638 -2.005798,0.231964 -2.822174,0.283997c-0.836304,0.053314 -2.147034,0.157593 -3.060486,0.283997c-0.463013,0.064087 -1.376373,0.219879 -2.251678,0.363342c-1.166168,0.191162 -1.813904,0.266266 -2.646149,0.352661c-0.78775,0.081757 -1.992432,0.286072 -2.703522,0.425323c-0.774231,0.151611 -1.602264,0.317993 -2.93866,0.453339c-0.461823,0.046783 -1.404114,0.093872 -2.353333,0.146667c-0.472717,0.026276 -1.860687,0.127014 -2.73999,0.258667c-0.851532,0.127502 -1.672119,0.306244 -2.484009,0.432007c-1.199982,0.185883 -2.055298,0.236267 -2.529327,0.269318c-1.103943,0.076996 -1.758362,0.120239 -2.496002,0.184021c-1.776917,0.153687 -2.832062,0.271271 -3.982666,0.398651c-1.221069,0.135162 -2.486694,0.28241 -3.772491,0.432007c-1.280884,0.149048 -2.531372,0.297333 -3.727509,0.432007c-2.12616,0.23938 -3.013489,0.328552 -3.783997,0.397339c-0.665894,0.059448 -1.241119,0.102142 -1.738495,0.128998c-0.432037,0.023346 -0.812317,0.035095 -1.153503,0.039001c-0.61731,0.00708 -0.916992,0.001007 -1.214661,0.003998c-0.58139,0.005829 -1.420532,-0.060608 -2.434692,0.282654c-0.647461,0.219147 -1.508026,0.622803 -2.229309,0.679993c-0.788635,0.062531 -2.055481,0 -2.717834,0.056854c-1.027435,0.088165 -1.820831,0.40448 -2.62085,0.69516l-1,0.226837l-0.799988,0.052673" id="svg_35" stroke-linecap="null" stroke-linejoin="null" stroke-dasharray="null" stroke-width="5" stroke="#000000" fill="none"/>
  <path d="m326,272c-1.700012,0 -2.600006,0 -3.5,0c-0.899994,0 -1.799988,0 -2.701324,0c-0.965332,0 -1.798676,0 -2.777344,0c-0.773987,0 -1.69455,-0.11853 -2.537323,0.085327c-0.888031,0.214813 -1.681519,0.870789 -2.369354,0.91333c-0.948853,0.058716 -1.715973,0.001343 -2.714661,0.001343c-0.799988,0 -1.799988,0 -2.600006,0c-1.000153,0 -1.820831,-0.003296 -2.966644,0c-0.781525,0.002258 -1.59549,-0.07843 -2.5,0.166656c-0.847656,0.229675 -1.650238,0.755341 -2.375,0.8125c-1.121704,0.08847 -1.915497,0.020844 -2.769012,0.020844c-0.590668,0 -1.787994,0 -2.668488,0c-0.83551,0 -1.836853,0 -2.520844,0c-1.166656,0 -1.948181,0 -2.738678,0c-0.927979,0 -1.761322,0 -2.804321,0c-0.729004,0 -1.56601,0 -2.756989,0c-0.600006,0 -1.5,0 -2.700012,0c-0.600006,0 -1.5,0 -2.399994,0c-0.899994,0 -1.800018,0 -2.700012,0c-0.899994,0 -1.795502,0 -2.664001,0c-1.069336,0 -1.783325,0 -2.68866,0c-0.968842,0 -1.783325,0 -2.651825,0c-0.895508,0 -1.800476,0.007904 -2.416351,-0.020844c-0.965576,-0.045074 -2.001617,-0.195374 -2.736328,-0.331818c-0.764679,-0.141998 -1.542816,-0.326447 -2.742828,-0.480682c-0.797546,-0.102509 -1.599792,-0.138641 -2.399994,-0.155975c-0.799866,-0.017334 -2,-0.010681 -2.800003,-0.010681c-0.800003,0 -1.600006,0 -2.800003,0c-0.79866,0 -1.58934,0 -2.363998,0c-1.46933,0 -2.152008,0 -2.810669,0c-0.977997,0 -1.992004,0 -2.712006,0c-0.759995,0 -1.559998,0 -2.399994,0c-1.334839,0 -2.270493,0 -2.749329,0c-0.97467,0 -1.965332,0 -2.964005,0c-0.998672,0 -1.495499,0 -2.479172,0c-0.963669,0 -1.435501,0 -2.799332,0c-0.864334,0 -1.700668,0 -2.516998,0c-1.204498,0 -2.005951,0.006409 -2.81517,-0.010681c-0.825531,-0.017426 -1.677109,-0.052521 -3.010666,-0.210663c-0.463638,-0.054993 -1.403732,-0.205658 -2.353333,-0.353333c-0.472534,-0.073486 -1.857407,-0.273682 -2.73999,-0.339996c-0.848373,-0.063751 -1.674637,-0.078857 -2.484009,-0.083984c-1.201126,-0.007599 -1.996826,-0.001343 -2.780502,-0.001343c-0.763657,0 -1.854202,0.006104 -2.536835,-0.001343c-0.984131,-0.010712 -1.641922,-0.016693 -3.005493,-0.220001c-0.739136,-0.110199 -1.497101,-0.291016 -2.283005,-0.425995c-1.192413,-0.204803 -1.99617,-0.279541 -2.806168,-0.31665c-0.82486,-0.037781 -1.674667,-0.035339 -2.556,-0.036011c-0.917328,-0.000702 -1.858658,0 -2.333328,0c-0.947327,0 -2.333328,0 -3.214661,0c-0.849335,0 -1.674667,0 -2.080841,0c-1.204498,0 -2.395493,0 -3.162827,0c-0.727341,0 -1.708344,0 -2.540833,0c-0.787506,0 -2.000839,0 -2.755508,0c-0.842667,0 -1.741333,0 -2.20166,0c-1.376999,0 -2.258469,0.007019 -3.107666,-0.010681c-0.825546,-0.017212 -1.638443,-0.044678 -2.835999,-0.210663c-0.80304,-0.111298 -1.597992,-0.290009 -2.400009,-0.425995c-1.197235,-0.203003 -2,-0.267334 -2.800003,-0.31665l-0.799988,-0.02533l-0.800003,-0.009338" id="svg_36" stroke-linecap="null" stroke-linejoin="null" stroke-dasharray="null" stroke-width="5" stroke="#000000" fill="none"/>
  <path d="m290,277c-1.700012,0 -2.600037,0.005341 -3.5,0c-0.900055,-0.005341 -1.720001,-0.497711 -2.5,-0.833344c-0.711273,-0.306061 -1.652679,-0.166656 -2.515991,-0.166656c-0.984009,0 -1.968018,0 -2.658661,0c-1.068176,0 -1.925507,0 -2.710693,0c-0.950653,0 -1.715973,0 -2.714661,0c-0.799988,0 -1.804382,0.054504 -2.600006,-0.036011c-1.010498,-0.11496 -1.776825,-0.543823 -2.799988,-0.797333c-0.776581,-0.192413 -1.522858,-0.058838 -2.5,-0.1875c-0.838531,-0.110413 -1.519897,-0.564178 -2.666656,-0.8125c-0.775635,-0.167938 -1.607971,-0.15799 -2.666687,-0.166656c-0.713989,-0.005859 -1.626404,-0.019745 -2.588165,-0.221344c-0.821777,-0.172272 -1.37854,-0.408234 -2.578491,-0.612c-0.88504,-0.150299 -1.45842,-0.141113 -2.666672,-0.166656c-0.833405,-0.017609 -1.666214,-0.168274 -2.605331,-0.425323c-0.549072,-0.150299 -1.725967,-0.425323 -2.627991,-0.522003c-0.598877,-0.064178 -1.507278,-0.097076 -2.700012,-0.33667c-0.60434,-0.121399 -1.493439,-0.398499 -2.399994,-0.549347c-0.894882,-0.148895 -1.802338,-0.171692 -2.399994,-0.250671c-1.204758,-0.159241 -2.076614,-0.426147 -2.642838,-0.563324c-1.031662,-0.249939 -1.980499,-0.332733 -2.726501,-0.436676c-1.20491,-0.167908 -1.891068,-0.345917 -2.615997,-0.490662c-0.731094,-0.145966 -1.792496,-0.313141 -2.789337,-0.399994c-0.650177,-0.056641 -1.993607,-0.182587 -2.709335,-0.309326c-0.743118,-0.131592 -1.488205,-0.30423 -2.231995,-0.432007c-1.059525,-0.182007 -2.059418,-0.249786 -2.709335,-0.309326c-1.34314,-0.123016 -2.064865,-0.255585 -2.842667,-0.410675c-0.851639,-0.1698 -1.305679,-0.280731 -2.832001,-0.563995c-0.563171,-0.104523 -1.757919,-0.300446 -2.376007,-0.399994c-0.623917,-0.100464 -1.248993,-0.193909 -2.472,-0.399994c-1.152969,-0.194275 -2.197327,-0.398712 -2.684998,-0.495514c-0.925323,-0.183685 -1.806824,-0.376251 -3.133667,-0.537842c-0.453568,-0.055237 -1.385941,-0.115051 -2.333328,-0.166656c-0.47464,-0.025848 -1.420013,-0.048798 -2.778168,-0.221344c-0.85878,-0.1091 -1.658676,-0.282013 -2.403,-0.425995c-0.98465,-0.19046 -1.814606,-0.289795 -2.569504,-0.377991c-1.084473,-0.126709 -2.062927,-0.331024 -2.791,-0.47467c-0.766571,-0.151245 -1.957184,-0.345245 -2.758331,-0.415985c-0.799042,-0.070557 -1.601364,-0.092987 -2.399994,-0.16803c-1.203568,-0.113068 -2.027664,-0.274384 -2.464005,-0.36264c-0.953476,-0.192871 -1.477875,-0.32019 -3.335999,-0.720001c-0.727554,-0.156555 -1.503632,-0.31781 -2.315994,-0.481506c-0.835617,-0.168365 -1.683472,-0.333832 -2.532013,-0.490509c-0.835495,-0.154266 -1.645538,-0.308228 -3.151993,-0.527985c-0.669998,-0.097748 -1.287506,-0.168854 -1.856995,-0.223511c-1.017212,-0.097656 -1.919418,-0.12674 -3.143005,-0.276489c-0.802765,-0.098236 -1.600723,-0.266022 -2,-0.354187c-0.801498,-0.176971 -1.999298,-0.482025 -2.79866,-0.677826c-0.789993,-0.193512 -1.561447,-0.386169 -2.31601,-0.515991c-1.395218,-0.240051 -2.061386,-0.244202 -3.037994,-0.338013c-1.015717,-0.097565 -1.730911,-0.226624 -2.462006,-0.37265c-1.076904,-0.215088 -2.051514,-0.411499 -2.916,-0.531006c-0.635651,-0.087891 -1.432953,-0.205475 -1.919998,-0.29834c-1.218552,-0.232361 -1.963425,-0.406921 -2.790665,-0.598663c-0.890472,-0.206406 -1.823105,-0.431564 -2.779495,-0.667496c-0.96228,-0.237381 -1.910324,-0.4758 -2.824509,-0.712509c-1.655853,-0.428757 -2.361237,-0.621979 -2.983994,-0.794662c-0.547531,-0.15184 -1.439468,-0.416626 -2.115829,-0.605835c-0.909531,-0.25444 -1.868484,-0.386749 -2.824173,-0.651505c-0.758942,-0.210251 -1.292755,-0.393494 -2.309174,-0.814667c-0.910431,-0.377243 -1.508987,-0.723328 -2.543991,-1.204498c-0.749802,-0.348572 -1.399696,-0.594177 -2.684006,-1.01683c-0.510437,-0.167984 -1.052788,-0.329849 -2.172661,-0.678665c-0.558395,-0.173935 -1.626381,-0.486526 -2.520836,-0.833328c-0.974396,-0.377792 -1.714211,-0.886856 -2.484001,-1.366669c-0.677338,-0.42218 -1.494499,-0.899841 -2.211502,-1.442841l-0.804497,-0.357162l-0.800003,-0.352661" id="svg_37" stroke-linecap="null" stroke-linejoin="null" stroke-dasharray="null" stroke-width="5" stroke="#000000" fill="none"/>
  <path d="m43,218c1.799999,0 2.387154,0.314484 3.166668,0.833328c0.707458,0.470886 1.667767,-0.029282 2.533333,0.223831c0.877632,0.256638 1.626514,0.719727 2.498665,0.944168c0.800911,0.206116 1.263588,0.923584 2.122669,1.220001c0.693531,0.239288 1.69545,0.540955 2.477333,0.862671c0.754089,0.310272 1.540691,0.772507 2.402664,1.199997c0.724766,0.359451 1.464027,0.615372 2.400002,0.800003c0.806492,0.159088 1.54266,0.552689 2.514668,0.832001c0.755581,0.217117 1.69347,0.550354 2.399998,0.800003c0.965652,0.341217 1.960884,0.58551 2.658669,0.858658c0.932419,0.36499 1.723244,0.472763 2.482498,0.782501c0.763054,0.311295 1.72995,0.870911 2.342834,1.122009c0.981667,0.402191 1.826637,0.3508 2.833336,0.6875c0.706863,0.23642 1.496201,0.670395 2.341331,0.858658c0.952866,0.212265 1.55468,0.70462 2.482498,0.921997c0.734825,0.172165 1.754128,0.311523 2.542831,0.663345c0.812538,0.362442 1.565735,0.837418 2.314667,1.103989c0.961159,0.342102 1.970673,0.285278 2.696007,0.285339c0.989326,0.000092 1.806961,-0.070435 2.78933,0.166672c0.810738,0.195679 1.499214,0.658371 2.24733,1.12883c0.901634,0.567001 1.618034,0.53064 2.586006,0.87117c0.712112,0.250519 1.461716,0.986618 2.1875,1.3125c0.949883,0.426514 1.787773,0.40596 2.493828,0.604828c1.029495,0.289963 1.806648,0.795776 2.506172,0.916c0.978897,0.168228 1.754761,0.46228 2.493828,0.716003c1.057709,0.363113 1.754654,0.691254 2.652,1.283997c0.646095,0.426773 1.425224,0.759552 2.428833,0.947327c0.741852,0.138809 1.60997,0.491272 2.288506,0.768677c0.901054,0.368378 1.959152,0.190536 2.741333,0.319992c0.882133,0.145996 1.564568,0.550964 2.490662,1.162674c0.647751,0.427856 1.546547,0.71579 2.288506,0.854004c1.004738,0.18718 1.778496,0.582108 2.595497,0.780655c0.777443,0.188934 1.864304,-0.012192 2.695503,0.223831c0.778534,0.221069 1.448174,0.985367 2.140495,1.332169c0.743546,0.372452 1.770004,0.519577 2.563995,0.663345c1.009979,0.182877 1.784225,0.577118 2.600006,0.780655c0.840988,0.209824 1.689926,0.256454 2.833328,0.5c0.475189,0.101212 1.530975,0.37294 2.093338,0.528c1.148697,0.316727 1.71167,0.485138 2.253326,0.656006c1.416992,0.446991 2.124771,0.747055 2.966675,1.035995c1.042526,0.357788 1.833405,0.399612 2.832001,0.446838c0.775238,0.036652 1.663025,0.395248 2.425827,0.647171c0.978775,0.323242 1.795609,0.334824 2.79567,0.352829c0.820786,0.014771 1.491852,0.054092 2.483841,0.283829c0.822342,0.190445 1.622726,0.486115 2.629333,0.630676c0.834747,0.119873 1.817719,-0.002457 2.570663,0.170654c0.985184,0.226517 1.702576,0.710007 2.716003,0.857513c0.793365,0.115479 1.799988,0.057159 2.599991,0.057159c1,0 1.800018,-0.00676 2.800003,0c0.789398,0.005341 1.521744,0.068893 2.5,0.5c0.82756,0.3647 1.499847,0.489578 2.615997,0.5c0.767975,0.007172 1.709381,-0.007309 2.400009,0c0.984161,0.010422 1.967987,0.283997 2.658661,0.574661l0.94133,0.340012l0.768005,0.084l0.94133,0.001328" id="svg_55" stroke-linecap="null" stroke-linejoin="null" stroke-dasharray="null" stroke-width="5" stroke="#000000" fill="none"/>
  <path d="m267,181c1.799988,0 2.719788,-0.157104 3.5,0.020828c0.962036,0.219391 1.593872,0.918289 2.5,0.979172c0.798187,0.053635 1.823425,-0.412689 2.642822,0.057159c0.687866,0.394424 1.357178,0.942841 2.157166,0.942841c0.900024,0 1.6008,0.200211 2.284027,0.716003c0.615326,0.464539 1.61615,0.267197 2.515991,0.283997c0.964508,0.018005 1.394287,0.8181 2.201324,0.998672c0.876984,0.196228 1.870636,-0.326782 2.677826,0.022156c0.713989,0.30864 1.349091,0.566498 2.163666,1.036331c0.686859,0.396164 1.393616,0.774689 2.157166,1.028168c0.772186,0.256348 1.580292,0.90007 2.200012,1.414673c0.60202,0.499908 1.40625,0.596359 2.052673,1.147339c0.604401,0.515152 1.210297,1.137482 1.947327,1.519333c0.753967,0.39064 1.47171,0.943832 2.052673,1.480667c0.688629,0.636337 1.243561,1.132797 1.894653,1.705322c0.639191,0.562057 1.19104,1.096695 1.768677,1.731339c0.588562,0.646652 1.111115,1.267929 1.636658,1.863327c0.563263,0.638138 1.165375,1.211563 1.731354,1.768677c0.671112,0.660614 1.252777,1.135254 1.890656,1.709335c0.578735,0.520859 1.225494,1.049789 1.858673,1.741333c0.547577,0.598038 1.074524,1.218399 1.59198,1.807999c0.559692,0.637756 1.063843,1.210495 1.741333,1.858658c0.632324,0.604965 1.118317,1.226242 1.480682,1.866669c0.464417,0.820786 1.171814,1.351517 1.351318,2.101334c0.213593,0.892227 0.794037,1.436401 1.001495,2.298508c0.202179,0.840134 0.971191,1.255875 0.999847,2.100159c0.030548,0.899323 0.568848,1.476624 0.963989,2.236008c0.39917,0.767105 -0.123322,1.861877 0.388672,2.511322c0.484528,0.614624 0.647339,1.352676 0.647339,2.25267c0,0.900009 -0.322357,1.953796 0.221344,2.678665c0.4823,0.643021 0.778656,1.321335 0.778656,2.221344c0,0.899994 0,1.699997 0,2.599991c0,0.900009 0,1.800003 0,2.699997c0,0.900009 0,1.800003 0,2.700012c0,0.899994 0,1.699997 0,2.599991c0,0.900009 0,1.800003 0,2.699997c0,0.900009 0,1.800003 0,2.700012c0,0.899994 0.195953,1.734436 -0.057159,2.599991c-0.256653,0.87764 -0.914246,1.598648 -0.942841,2.5c-0.028534,0.899551 0.337097,1.948898 -0.166656,2.633331c-0.480621,0.653015 -0.722565,1.273514 -0.833344,2.166672c-0.111511,0.899231 -0.759552,1.313675 -1.001343,2.198669c-0.217926,0.79776 -0.980011,1.236786 -0.998657,2.101318c-0.019379,0.898468 -0.486694,1.524811 -1,2.220856c-0.507599,0.688324 -0.655304,1.722534 -1.221344,2.357819c-0.535461,0.600983 -1.085541,1.168152 -1.494659,1.921326c-0.433228,0.797516 -0.9552,1.482971 -1.505341,2.078674c-0.588226,0.636932 -1.166229,1.136292 -1.803986,1.696014c-0.5896,0.517456 -1.257507,1.106232 -1.890656,1.70932c-0.574127,0.546875 -1.443726,0.631226 -2.058685,1.141327c-0.599274,0.497101 -1.019226,1.36731 -1.729828,1.57019c-0.904205,0.258148 -1.462158,0.83783 -2.295502,1.171143l-0.600006,0.40802l-0.87915,0.425323l-0.546173,0.574677" id="svg_56" stroke-linecap="null" stroke-linejoin="null" stroke-dasharray="null" stroke-width="5" stroke="#000000" fill="none"/>
  <path d="m251,182c-1.221329,0.878662 -1.907883,1.385071 -2.425339,1.97467c-0.559692,0.637741 -0.96254,1.336548 -1.741333,1.858658c-0.705887,0.473236 -1.528732,0.43602 -2.117325,1.082672c-0.577652,0.634644 -1.298538,0.771622 -2.105331,1.094666c-0.789139,0.315979 -1.408203,0.634293 -2.174667,1.02533c-0.697159,0.355682 -1.216705,1.083298 -2.036011,1.538666c-0.781784,0.434509 -1.511795,0.867676 -2.399994,1.258667c-0.657639,0.289505 -1.437866,0.412064 -2.166672,1c-0.698563,0.563538 -1.371292,0.910538 -2.233322,1.130676c-0.959641,0.245071 -1.653809,0.482605 -2.174667,1.061325c-0.574081,0.637878 -1.095016,1.372101 -1.710678,1.890671c-0.665344,0.56041 -1.196503,1.022186 -1.767334,1.726837c-0.591782,0.730499 -1.258469,1.120743 -1.894653,1.709824c-0.575592,0.53299 -1.164551,1.126724 -1.700012,1.700012c-0.639999,0.685211 -1.179794,1.299255 -1.705322,1.894653c-0.563263,0.638153 -1.104019,1.183075 -1.731339,1.768677c-0.688354,0.642578 -0.657379,1.510635 -1.137329,2.162659c-0.513977,0.698257 -1.16626,1.136307 -1.804001,1.695999c-0.5896,0.517456 -0.57196,1.363144 -1.059998,2.139999c-0.46492,0.740051 -1.144989,1.245651 -1.562012,1.985336c-0.420044,0.745026 -1.145294,1.293915 -1.34816,2.004501c-0.258148,0.904236 -0.749695,1.503098 -1.171173,2.295502c-0.340729,0.640594 -0.493851,1.462845 -0.843994,2.389328c-0.276642,0.73201 -0.820923,1.241135 -1.010162,2.110672c-0.184189,0.846283 -0.870255,1.598404 -0.979172,2.5c-0.096497,0.798737 -0.686203,1.422363 -0.942841,2.300003c-0.253113,0.865555 0.165344,1.915909 -0.341156,2.615997c-0.501785,0.693558 -0.716003,1.384003 -0.716003,2.283997c0,0.900009 0.321777,1.937897 -0.166672,2.633331c-0.502319,0.715179 -0.833328,1.266678 -0.833328,2.166672c0,0.800003 0,1.699997 0,2.600006c0,0.899994 0.000671,1.799988 0,2.699997c-0.000671,0.899994 -0.326126,1.736664 -0.716003,2.5c-0.384537,0.752884 -0.283997,1.699997 -0.283997,2.599991c0,0.900009 0,1.800003 0,2.700012c0,0.899994 0.450348,1.444916 0.914673,2.185333c0.488052,0.778259 -0.003357,1.819046 0.085327,2.714661c0.08374,0.845703 0.792694,1.237732 1.000168,2.099823c0.202179,0.840118 0.717316,1.300201 1.004333,2.195679c0.243866,0.760864 0.995499,1.204498 1.642838,1.757172l0.351334,0.748657l0.058487,0.841492" id="svg_64" stroke-linecap="null" stroke-linejoin="null" stroke-dasharray="null" stroke-width="5" stroke="#000000" fill="none"/>
  <path d="m264,199c0.878662,1.221329 1.385071,1.907883 1.97467,2.425339c0.637756,0.559708 0.662079,1.376434 1.06134,2.138657c0.397217,0.758301 0.7677,1.271835 1.021149,2.136002c0.257324,0.877426 0.807343,1.608551 0.944183,2.5c0.140594,0.915787 0.808502,1.454086 0.987976,2.400009c0.167755,0.884277 0.021362,1.789322 0.510681,2.399994c0.489319,0.610672 0.5,1.5 0.5,2.399994c0,0.900009 -0.137329,1.881134 0.352661,2.547333c0.503235,0.684219 0.646667,1.452667 0.647339,2.352676c0.000671,0.898666 0.610199,1.437881 0.963989,2.136002c0.3909,0.771362 0.036011,1.763992 0.036011,2.664001c0,0.899994 0.483185,1.507172 0.914673,2.185333c0.493134,0.77504 0.085327,1.814667 0.085327,2.714661c0,0.800003 0,1.699997 0,2.600006c0,0.899994 0.000671,1.799988 0,2.699997c-0.000671,0.898666 -0.610199,1.437881 -0.963989,2.136002c-0.3909,0.771362 -0.036011,1.763992 -0.036011,2.664001c0,0.899994 -0.482635,1.507523 -0.914673,2.185333c-0.493103,0.773636 -0.693634,1.453506 -1.049316,2.150665c-0.391022,0.766464 -0.752655,1.441177 -1.02533,2.174667c-0.302826,0.814606 -0.528778,1.548157 -1.094696,2.105331c-0.671021,0.66066 -0.657379,1.510635 -1.137329,2.162659c-0.513977,0.698242 -1.451996,0.942871 -1.767975,1.73201c-0.323059,0.806793 -0.460052,1.527679 -1.094696,2.105331c-0.646667,0.588593 -0.657379,1.51062 -1.137329,2.162659c-0.513977,0.698242 -1.186768,1.054443 -1.803986,0.546661c-0.605774,-0.498383 -1.145691,-1.238159 -1.97467,-1.425323c-0.88385,-0.19957 -1.336792,-0.851257 -1.97467,-1.425339c-0.578735,-0.520859 -0.626801,-1.288849 -1.06134,-2.138657c-0.356323,-0.696823 -0.944611,-1.237549 -0.963989,-2.136002c-0.018646,-0.864548 -0.819153,-1.351501 -0.998672,-2.101334c-0.213608,-0.892212 -0.94043,-1.413895 -1.001328,-2.298676c-0.061798,-0.897873 0.402725,-1.836395 -0.085327,-2.614655c-0.464325,-0.740417 -0.914673,-1.285339 -0.914673,-2.085342c0,-0.899994 0,-1.800003 0,-2.699997c0,-0.899994 0,-1.800003 0,-2.699997c0,-0.900009 0,-1.800003 0,-2.600006c0,-0.899994 -0.009567,-1.800049 0,-2.699997c0.010422,-0.97934 0.77478,-1.4366 0.995499,-2.204498c0.247375,-0.860672 -0.284592,-1.847473 0.015167,-2.68483c0.263748,-0.736755 0.983994,-1.221298 0.989334,-2.110672c0.005402,-0.899979 -0.017288,-1.81134 0.5,-2.5c0.469986,-0.625687 0.210922,-1.551971 0.510681,-2.389328c0.263733,-0.73674 0.59079,-1.32486 1.02533,-2.174667c0.356323,-0.696823 0.561279,-1.37381 1.049316,-2.150665c0.464935,-0.740051 1.251465,-1.136597 1.889343,-1.710678c0.578735,-0.520859 1.184235,-1.092697 1.741333,-1.658661c0.660645,-0.671127 1.043549,-1.229675 1.285339,-2.11467c0.217926,-0.79776 0.962646,-1.237335 1.009338,-2.190659l0.489319,-0.610672l0.489319,-0.610672" id="svg_65" stroke-linecap="null" stroke-linejoin="null" stroke-dasharray="null" stroke-width="5" stroke="#000000" fill="none"/>
  <path d="m558,184c-1.052673,-1.699997 -1.573608,-2.463074 -1.947327,-3.300003c-0.34491,-0.772339 -0.802429,-1.428406 -1.251343,-2.18399c-0.495911,-0.834671 -0.620361,-1.81102 -1.022644,-2.616013c-0.328918,-0.658249 -0.694702,-1.56633 -1.214661,-2.299988c-0.557983,-0.787277 -1.203125,-1.209625 -1.764038,-2.084c-0.430908,-0.671783 -0.956909,-1.455078 -1.364014,-2.105347c-0.482178,-0.770248 -0.778809,-1.723785 -1.237305,-2.210663c-0.67804,-0.720001 -1.506226,-1.321381 -1.91333,-2c-0.441467,-0.735947 -0.712097,-1.608826 -1.385315,-2.300003c-0.592041,-0.607864 -1.218018,-1.218002 -1.828674,-1.828659c-0.738037,-0.738022 -1.407349,-1.407318 -1.782043,-1.781998c-0.390625,-0.390656 -1.187988,-1.188019 -1.578613,-1.578674c-1.043945,-1.044022 -1.782043,-1.781998 -2.268005,-2.26799c-0.742676,-0.742691 -1.22583,-1.2603 -1.874695,-1.863998c-0.608704,-0.566299 -1.33075,-1.12291 -1.925964,-1.584015c-0.640747,-0.496353 -1.299133,-0.970535 -2.377502,-1.851654c-0.564575,-0.461319 -1.194031,-1.228989 -1.864502,-1.707001c-0.755676,-0.538727 -1.74115,-0.926544 -2.16803,-1.28801c-0.746033,-0.63176 -1.150208,-1.199493 -2.26001,-1.893326c-0.646179,-0.403961 -1.296814,-0.993225 -1.891968,-1.541336c-0.538757,-0.496185 -1.21283,-1.205002 -1.791992,-1.538666c-0.92749,-0.534378 -1.812988,-0.972 -2.416504,-1.417496c-0.698853,-0.5159 -1.34613,-1.2836 -2.071533,-1.955841c-0.580444,-0.537872 -1.271667,-1.001572 -1.966675,-1.634659c-0.464478,-0.423065 -1.342407,-0.822876 -1.885315,-1.304001c-0.634888,-0.562637 -1.274017,-1.195297 -1.895996,-1.812012c-0.79007,-0.783401 -1.465118,-1.506638 -2.250671,-1.96666c-0.706543,-0.413757 -1.059235,-0.92746 -1.482666,-1.397339c-1.043365,-1.157806 -1.589355,-1.592224 -2.144501,-2.09816c-0.584717,-0.532898 -1.192657,-1.070389 -1.807495,-1.600502c-0.60022,-0.517502 -1.163544,-1.019478 -2.200012,-1.821335c-0.757599,-0.586121 -1.752411,-1.027176 -2.466644,-1.523834c-0.780273,-0.542595 -1.266998,-1.277863 -1.900024,-1.841499c-0.762665,-0.679062 -1.539093,-0.891174 -2.299988,-1.467995c-0.577393,-0.437714 -1.173431,-1.037468 -1.824005,-1.632004c-0.621552,-0.568016 -1.403625,-1.229431 -2.243988,-1.694664c-0.824524,-0.456459 -1.396057,-1.048401 -1.994507,-1.527504c-0.888702,-0.711479 -1.488617,-0.964767 -2.113495,-1.304497c-0.964661,-0.524475 -1.827881,-1.002151 -2.615997,-1.528c-0.711548,-0.474747 -1.528961,-0.697906 -2.291351,-1.209167c-0.574829,-0.38549 -1.400146,-0.983063 -2.127319,-1.442833c-0.787354,-0.497818 -1.194305,-0.734154 -1.953339,-1.226669c-1.204865,-0.78183 -1.746826,-1.232597 -2.436005,-1.867828c-0.595032,-0.548454 -1.490295,-0.88887 -2.399994,-1.400169c-0.57135,-0.321121 -1.180298,-0.78083 -1.824005,-1.260002c-0.628235,-0.467667 -1.634796,-1.252968 -2.243988,-1.818665c-0.750763,-0.697159 -1.465668,-1.165405 -2.231995,-1.505333c-0.692749,-0.307289 -1.42099,-0.981277 -2.406677,-1.68c-0.41098,-0.291336 -1.320007,-0.912003 -1.793335,-1.236c-0.473328,-0.323997 -1.389709,-0.934471 -2.492493,-1.735336c-0.526367,-0.382263 -1.301422,-0.973953 -2.090851,-1.306328c-1.084106,-0.456444 -1.754425,-0.80851 -2.127319,-1.020836c-0.793182,-0.451653 -1.592651,-0.915306 -2.622681,-1.604164c-0.753021,-0.503601 -1.23465,-0.950012 -2.150665,-1.533333c-0.673218,-0.428696 -1.441223,-0.97847 -2.211487,-1.442833c-0.73645,-0.443977 -1.411926,-0.564209 -2.471161,-1.023834c-0.486328,-0.211021 -1.607147,-0.7472 -2.221344,-1.045334c-0.633484,-0.307495 -1.270935,-0.622078 -1.900513,-0.934502c-0.6091,-0.302269 -2.184784,-1.084106 -2.963989,-1.482002c-0.85025,-0.434174 -1.676575,-1.049706 -2.372833,-1.435501c-0.829498,-0.45961 -1.354706,-0.456871 -2.053345,-0.67733c-1.040649,-0.328377 -2.490173,-0.920128 -3.398499,-1.308167c-1.015991,-0.434029 -2.104492,-0.920395 -3.241486,-1.438499c-1.162018,-0.529503 -2.317413,-1.067726 -3.439514,-1.600502c-1.065826,-0.506042 -2.910492,-1.407547 -3.640991,-1.782333c-0.609192,-0.312546 -1.106049,-0.579803 -1.507507,-0.802498c-0.323303,-0.179337 -0.578583,-0.329224 -0.787476,-0.442505c-0.171387,-0.092941 -0.630096,-0.247406 -1.305847,-0.384163c-0.983276,-0.198997 -1.649475,-0.800133 -2.520844,-0.979164c-0.943695,-0.193901 -1.700928,0.079689 -2.593811,-0.304832c-0.95697,-0.412109 -1.515991,-0.740265 -2.197357,-0.970673c-1.12619,-0.380821 -1.593384,-0.597191 -2.650665,-1.021332c-0.558197,-0.223923 -1.113892,-0.467796 -2.218658,-0.872002c-1.402008,-0.512955 -2.131439,-0.670982 -2.929321,-0.855995c-0.87149,-0.202087 -1.55484,-0.722023 -2.353333,-0.981339c-0.825317,-0.268028 -1.964386,-0.45591 -2.440002,-0.582664c-1.048859,-0.279533 -1.59552,-0.433823 -2.680023,-0.726669c-0.511749,-0.138191 -1.788391,-0.456955 -2.610657,-0.643997c-0.973511,-0.221443 -1.689423,-0.521721 -2.495667,-0.822998c-1.135925,-0.424461 -1.61438,-0.565231 -2.668488,-0.886497c-0.556244,-0.169533 -1.67749,-0.494141 -2.220673,-0.642006c-1.417938,-0.386002 -2.100647,-0.593864 -2.956512,-0.688499c-0.92334,-0.102097 -1.510254,-0.121803 -2.463989,-0.354664c-0.907288,-0.221527 -1.951996,-0.517334 -2.5,-0.666668c-0.548004,-0.149334 -1.591278,-0.451202 -2.871002,-0.757168c-0.810181,-0.193699 -1.686279,-0.531837 -2.32901,-0.890167c-0.734528,-0.409515 -1.697693,-0.43335 -2.466644,-0.519333c-1.02182,-0.114262 -1.602936,-0.183643 -2.833344,-0.354164c-0.623169,-0.086365 -1.242706,-0.127541 -2.833344,-0.479168c-0.775818,-0.171505 -1.455261,-0.641827 -2.366669,-0.914665c-0.770721,-0.230724 -1.652435,-0.116398 -2.197327,-0.17067c-1.253174,-0.124821 -1.791382,-0.194416 -2.97998,-0.350666c-0.623077,-0.081905 -1.248688,-0.154976 -2.434692,-0.365334c-1.024475,-0.181709 -1.791748,-0.397984 -2.749329,-0.762665c-0.922424,-0.351295 -1.613647,-0.409443 -2.563995,-0.437336c-0.752472,-0.022087 -2.208069,-0.164673 -2.745331,-0.219997c-0.60141,-0.061928 -1.250671,-0.131191 -2.629333,-0.278667c-0.697327,-0.074593 -1.37851,-0.148678 -2.028015,-0.216c-1.59964,-0.16581 -2.313446,-0.25399 -3.261322,-0.282665c-0.846252,-0.0256 -1.704742,0.01347 -2.637329,-0.037334c-0.687439,-0.037449 -2.10144,-0.184368 -2.677338,-0.248001c-0.612122,-0.067638 -1.247925,-0.141949 -2.544006,-0.290665c-0.635956,-0.072971 -1.246399,-0.15765 -2.822815,-0.303837c-0.780975,-0.072422 -1.62915,-0.116165 -2.645172,-0.121498c-0.768005,-0.004032 -1.783997,0 -2.310669,0c-1.573334,0 -2.101166,0 -2.675995,0c-1.238678,0 -1.876495,0 -2.509338,0c-0.614838,0 -2.221344,0 -2.990662,0c-1.065826,0 -1.897339,0 -2.839996,0c-0.698669,0 -1.894684,0 -2.669342,0c-0.822662,0 -1.637329,0 -2.723328,0c-0.846008,0 -1.675354,0 -2.643829,0c-0.820831,0 -1.76355,-0.130009 -2.621185,0.221333c-0.769379,0.315178 -1.667389,0.716335 -2.420502,0.757835c-0.795502,0.043835 -1.79248,0.020832 -2.632477,0.020832c-0.961334,0 -1.946686,0 -2.84668,0c-0.799988,0 -1.690796,0.075783 -2.421326,0.425335c-0.901245,0.431248 -1.587585,0.536785 -2.364014,0.563999c-1.047424,0.036709 -1.978668,0.008781 -2.813324,0.010666c-0.996826,0.002251 -1.77179,-0.016804 -2.648682,0.352665c-0.955994,0.402798 -1.578186,0.606434 -2.585999,0.647335c-0.792145,0.032146 -1.640533,0.314407 -2.377319,0.574665c-0.975861,0.344704 -1.789276,0.408253 -2.789337,0.425335c-0.799957,0.013664 -1.61673,0.029438 -2.59549,0.352665c-0.762817,0.251915 -1.778656,0.629333 -2.72583,0.647335c-0.678558,0.012897 -1.693634,-0.171059 -2.477356,0.085335c-0.921753,0.301544 -1.688507,0.827034 -2.447998,0.939999c-0.920654,0.136936 -1.703369,0.337273 -2.527985,0.549332c-1.055481,0.271431 -1.774811,0.328606 -2.62085,0.478001c-1.013824,0.179016 -1.735291,0.635494 -2.72049,0.862c-0.752945,0.173107 -1.720001,0.083618 -2.485336,0.085335c-1.003174,0.002251 -1.864395,0.013054 -2.819992,0.2215c-0.813004,0.177345 -1.631546,0.468662 -2.412003,0.7785c-0.937653,0.372238 -1.547165,0.705498 -2.565338,0.916c-0.757095,0.156525 -1.670914,0.46357 -2.485336,0.800003c-0.892761,0.368797 -1.627426,0.655426 -2.449326,1.117332c-0.691589,0.388672 -1.534058,0.305779 -2.530502,0.609497c-0.797379,0.243042 -1.617203,0.573448 -2.02417,0.7425c-0.778336,0.323326 -1.940277,0.985817 -2.705338,1.368004c-0.861404,0.430313 -1.63768,0.388268 -2.606491,0.668159c-0.802048,0.23172 -1.595108,0.837029 -2.300171,1.257668c-0.784485,0.468025 -1.728394,0.471703 -2.700333,0.7425c-0.636276,0.177277 -1.314896,0.5382 -2.442337,1.09967c-0.663193,0.330269 -1.35733,0.678665 -2.052002,1.026001c-0.972,0.486 -1.791016,0.895477 -2.483994,1.241997c-1.021179,0.510635 -1.632141,0.773994 -2.335999,1.21067c-0.878448,0.544991 -1.698212,1.074532 -2.370667,1.283997c-1.003632,0.312622 -1.694824,0.727448 -2.61467,1.249336c-0.755463,0.428619 -1.158005,0.671997 -2,1.166664c-0.841995,0.494667 -1.24086,0.744598 -2.335327,1.356834c-0.840637,0.470245 -1.670242,0.872551 -2.539337,1.117836c-0.941696,0.265778 -1.648224,0.541985 -2.625336,1.02533c-0.601288,0.297432 -1.394791,0.710571 -2.408005,1.202667c-0.713409,0.346481 -1.33136,0.620552 -2.591995,1.130669c-0.526505,0.213051 -1.103745,0.435341 -1.716003,0.671997c-1.283447,0.496086 -1.932205,0.743431 -2.567993,0.989334c-0.612213,0.236786 -2.190231,0.854698 -2.973007,1.191002c-0.620621,0.26664 -1.341888,0.598137 -2.338501,1.114334c-0.75267,0.389847 -1.454285,0.99839 -2.203156,1.414665c-0.793701,0.441193 -1.60173,0.530647 -2.368011,0.785332c-1.025558,0.340858 -1.603165,0.559357 -2.210663,0.786667c-1.247757,0.466881 -1.857086,0.704994 -2.434662,0.946663c-1.445465,0.604813 -2.058334,1.002144 -2.856506,1.400505c-0.805588,0.402069 -1.762222,0.303711 -2.652832,0.587502c-0.69902,0.22274 -1.692917,0.547173 -2.477325,0.862663c-0.816376,0.328346 -1.695831,0.932037 -2.253342,1.11467c-0.939499,0.30777 -1.580521,0.493515 -2.683502,0.679832c-0.944778,0.159592 -1.780212,-0.035606 -2.66449,0.132164c-0.945923,0.179466 -1.58931,0.887535 -2.400009,0.987999c-0.866165,0.107338 -1.743423,0.220039 -2.450668,0.426666c-0.982391,0.287018 -1.933655,0.546074 -2.849335,0.574669c-0.899551,0.028091 -1.734436,-0.195946 -2.599991,0.057167c-0.87764,0.256645 -1.607269,0.913132 -2.270676,0.941498c-1.038208,0.044395 -1.814682,-0.004738 -2.862656,0.001335c-0.920044,0.005333 -1.698029,0.042824 -2.541336,0.425331c-0.811356,0.368019 -1.625732,0.53994 -2.60434,0.574837c-0.718765,0.025635 -1.785553,0.218704 -2.378998,0.352501c-0.966919,0.217995 -1.577484,0.443108 -2.774994,0.590164c-1.027542,0.126183 -1.867004,0.057167 -2.700333,0.057167c-0.862167,0 -1.766678,0 -2.609344,0c-0.698654,0 -1.893326,0 -2.658661,0c-0.797333,0 -1.562668,0 -2.757332,0c-0.823334,0 -1.741333,0 -2.641335,0c-0.900002,0 -1.804497,0 -2.666664,0c-0.895836,0 -1.605339,0 -2.800003,0c-0.673332,0 -1.346664,0 -2.533333,0c-0.9375,0 -1.800003,0 -2.699997,0c-0.900002,0 -1.800003,0.000572 -2.614334,0c-0.953667,-0.000671 -1.696472,0.055595 -2.417671,-0.085335c-1.136223,-0.222031 -1.925995,-0.811676 -2.767998,-0.893829c-0.974098,-0.095047 -1.821579,0.136772 -2.599998,-0.056839c-0.882065,-0.219383 -1.730125,-0.818207 -2.405334,-0.911331c-0.985596,-0.135933 -1.834717,-0.308968 -2.685669,-0.699997c-0.794533,-0.365105 -1.75354,-0.25721 -2.508995,-0.636665c-0.867203,-0.435585 -1.478477,-0.714516 -2.342667,-0.93734c-0.965492,-0.24894 -1.695824,-0.469391 -2.643005,-0.725998c-0.921295,-0.249596 -1.582909,-0.888893 -2.41433,-1.042c-0.885658,-0.163094 -1.684273,-0.420815 -2.456001,-0.811996c-0.685394,-0.34742 -1.622917,-0.589462 -2.267998,-0.798668c-1.18158,-0.383202 -1.943451,-0.862 -2.557335,-1.11467c-0.905449,-0.372681 -1.975563,-0.410828 -2.618668,-0.806168c-0.856079,-0.526268 -1.4767,-1.019142 -2.333336,-1.3125c-0.845375,-0.289505 -1.670654,-0.490921 -2.524666,-0.871994c-0.645088,-0.287849 -1.261604,-0.646347 -2.377495,-1.051834c-0.934731,-0.339653 -1.642319,-0.703049 -2.36467,-1.342667c-0.638138,-0.565048 -1.570709,-0.828186 -2.182503,-0.961502c-1.060425,-0.231071 -1.694748,-0.484634 -2.696499,-0.959503c-0.665836,-0.315628 -1.524704,-0.806648 -2.312832,-1.332497c-0.711536,-0.474747 -1.48753,-0.765724 -2.307999,-1.221336c-0.781956,-0.434227 -1.590439,-0.731651 -2.2715,-1.186996c-0.875645,-0.585442 -1.485828,-0.884193 -2.10767,-1.238335c-0.889076,-0.506332 -1.489525,-1.300484 -2.242332,-1.87867c-0.74789,-0.574409 -1.42469,-0.885551 -2.178501,-1.510666c-0.657963,-0.545631 -1.500935,-0.796844 -2.363998,-1.495995c-0.616173,-0.499153 -0.909428,-0.818802 -1.560001,-1.413338c-0.621555,-0.568016 -1.632198,-1.338341 -2.362499,-1.740501c-0.82814,-0.456039 -1.434879,-1.268402 -2.113499,-1.675499c-0.735939,-0.441483 -1.649635,-0.75666 -2.128666,-1.218498c-0.749073,-0.722191 -1.406181,-1.402664 -1.782001,-1.773003c-0.786926,-0.775444 -1.172554,-1.17337 -1.953335,-1.872498c-0.932007,-0.834541 -1.649231,-1.146828 -2.436665,-1.643501c-0.706356,-0.445534 -1.03978,-0.921394 -1.884666,-1.763c-0.724575,-0.721764 -1.1115,-1.110176 -1.913334,-1.877499c-0.388498,-0.371777 -1.40542,-1.344742 -1.960001,-1.711998c-0.786333,-0.520729 -1.582952,-0.894577 -2.282665,-1.48267c-0.842575,-0.708164 -1.195917,-0.991547 -1.949333,-1.618664c-0.77467,-0.64481 -1.196299,-0.909901 -2.076,-1.824001c-0.71101,-0.738815 -1.234983,-1.40947 -1.890667,-1.84c-0.746122,-0.489914 -1.306086,-1.065083 -1.921833,-1.680832c-0.615747,-0.615749 -1.389551,-1.455528 -1.805667,-2.116669c-0.404241,-0.642273 -1.058171,-1.638832 -1.501834,-2.102501c-0.462784,-0.48365 -1.442872,-1.167835 -2.150833,-1.71833c-0.651247,-0.506393 -0.985012,-1.380848 -1.583333,-2.041668c-0.480618,-0.530823 -1.222,-1.242832 -1.979167,-2c-0.5,-0.5 -1.293031,-1.130314 -1.714667,-1.799999c-0.507367,-0.805855 -0.941129,-1.750008 -1.347833,-2.205334c-0.449237,-0.502941 -1.170498,-1.227001 -1.9695,-2.026669c-0.467804,-0.468193 -1.30394,-1.298748 -1.734667,-1.736c-0.716864,-0.727726 -1.259075,-1.16214 -1.869,-2.088833c-0.48249,-0.733074 -1.097759,-1.22213 -1.907,-2.0285c-0.495872,-0.494112 -0.942163,-1.127739 -1.452,-1.703999c-0.837806,-0.946959 -1.442833,-1.348167 -2.030667,-1.985334l-0.621333,-0.486666" id="svg_70" stroke-linecap="null" stroke-linejoin="null" stroke-dasharray="null" stroke-width="5" stroke="#000000" fill="none"/>
  <path d="m529,249c-0.878662,1.221329 -1.385071,1.907883 -1.97467,2.425339c-0.637756,0.559692 -1.210938,1.063416 -1.858643,1.741333c-0.604065,0.632233 -0.977112,1.323868 -1.602661,1.807999c-0.745789,0.577209 -1.725708,0.607498 -2.442688,1.246674c-0.599976,0.534882 -1.41925,0.619324 -2.068665,1.131317c-0.614624,0.484528 -1.364014,0.630035 -2.052673,1.147339c-0.625671,0.469971 -1.417358,0.589508 -2.02533,1.074677c-0.624512,0.498383 -1.594238,0.42337 -2.374695,0.850647c-0.822571,0.450348 -1.832123,0.330444 -2.515961,0.858673c-0.627502,0.484711 -1.399902,0.549011 -2.282684,0.717346c-0.757355,0.144409 -1.236786,0.980011 -2.101318,0.998657c-0.899811,0.019409 -1.750854,0.300842 -2.400024,0.647339c-0.849365,0.453339 -1.834717,0.299774 -2.599976,0.705322c-0.845917,0.448303 -1.500183,0.628662 -2.400024,0.647339c-0.900513,0.018677 -1.610321,0.618103 -2.5,0.914673c-0.857635,0.285858 -1.800842,0.048126 -2.599976,0.085327c-0.917664,0.042725 -1.415253,0.939117 -2.300018,1c-0.897858,0.061798 -1.81073,-0.364349 -2.542816,0.057159c-0.811493,0.467255 -1.357574,0.91748 -2.157166,0.942841c-0.901398,0.028595 -1.622375,0.686188 -2.5,0.942841c-0.865601,0.253113 -1.932159,-0.187073 -2.615997,0.341156c-0.627502,0.484711 -1.434174,0.642944 -2.058685,1.141327c-0.607971,0.485199 -1.460144,0.331787 -2.320831,0.579163c-0.767883,0.220703 -1.242218,0.831879 -2.104492,1.006195c-0.943695,0.190796 -1.590454,0.878571 -2.399994,0.987976c-0.893799,0.120789 -1.622559,0.68689 -2.5,0.944183c-0.865479,0.253784 -1.750854,0.358002 -2.400024,0.704498c-0.849365,0.453339 -1.834717,0.299774 -2.599976,0.705322c-0.845917,0.448303 -1.500183,0.628662 -2.400024,0.647339c-0.900513,0.018677 -1.610321,0.618042 -2.5,0.914673c-0.857635,0.28595 -1.766663,0.305908 -2.399994,0.660004c-0.861237,0.481506 -1.844543,0.329865 -2.600006,0.70932c-0.867188,0.435577 -1.600189,0.696594 -2.5,0.716003c-0.864532,0.018646 -1.294281,0.818085 -2.101318,0.998657c-0.876984,0.196228 -1.818054,-0.000214 -2.598663,0.426666c-0.826416,0.451935 -1.474426,0.612518 -2.364014,0.796021c-0.915253,0.188782 -1.553558,0.384583 -2.735992,0.612c-0.788239,0.151581 -1.821686,-0.028229 -2.698669,0.167999c-0.807037,0.180573 -1.236786,0.980652 -2.101318,0.998657c-0.899841,0.018738 -1.806854,-0.110779 -2.700012,0c-0.899231,0.111511 -1.282379,0.957214 -2.200012,1c-0.899017,0.041931 -1.766663,0.220581 -2.399994,0.574677c-0.861237,0.481506 -1.808136,0.308807 -2.699982,0.42981c-0.82135,0.11142 -1.466858,0.84137 -2.300018,0.984833c-0.886993,0.15274 -1.847076,-0.083313 -2.699982,0.363342c-0.752258,0.393951 -1.534546,0.450714 -2.400024,0.704498c-0.877441,0.257294 -1.603485,0.903442 -2.466644,0.942841c-0.832733,0.037994 -1.793884,0.254333 -2.422668,0.574677c-0.887878,0.452362 -1.841431,0.362885 -2.731995,0.646667c-0.699036,0.222748 -1.650208,0.713745 -2.374176,0.77417c-0.937256,0.078217 -1.838654,-0.227509 -2.594666,0.061646c-0.897278,0.34317 -1.511169,0.942169 -2.409851,0.942841c-0.899994,0.000671 -1.701508,0.122192 -2.397308,0.574677c-0.694916,0.451904 -1.662933,0.401367 -2.569336,0.425323c-0.876434,0.023163 -1.327637,0.818085 -2.134674,0.998657c-0.876984,0.196228 -1.802032,-0.062775 -2.619995,0.012024c-0.921417,0.084259 -1.826294,0.42511 -2.573334,0.636658c-0.859009,0.243256 -1.808838,0.278473 -2.677338,0.388672c-0.883087,0.112061 -1.574127,0.405121 -2.322662,0.611328c-1.179871,0.325043 -1.681946,0.921509 -2.441345,1.31665c-0.76709,0.39917 -1.76474,0.000244 -2.664337,0.036163c-0.715698,0.028595 -1.667664,0.283844 -2.399658,0.499847c-0.731995,0.216003 -1.827515,0.481262 -2.799988,0.5c-0.902527,0.017395 -1.675232,0.067932 -2.468018,0.283997c-0.987457,0.269135 -1.889984,0.608856 -2.690338,0.69516c-0.957947,0.103302 -1.876892,0.180786 -2.546997,0.373505c-0.746155,0.214569 -1.845673,0.582123 -2.685669,0.642853c-0.906647,0.065521 -1.80899,0.004486 -2.708984,0.004486c-0.899994,0 -1.807587,-0.031433 -2.471497,0.057159c-0.899506,0.120056 -1.803772,0.371399 -2.452515,0.517517c-1.174683,0.264557 -2.018616,0.279144 -2.876007,0.70932c-0.867401,0.435211 -1.602844,0.666992 -2.362488,0.736847c-0.944794,0.086884 -1.79538,0.332306 -2.4375,0.479156c-0.947815,0.216736 -1.941406,0.457306 -3,0.5c-0.799347,0.032227 -1.586456,-0.000641 -2.666656,0.166656c-0.671539,0.104004 -1.434479,0.259674 -2.232025,0.40802c-0.765137,0.142303 -1.957214,0.381256 -2.895996,0.423981c-0.904388,0.041168 -1.805328,0.001343 -2.705322,0.001343c-0.899994,0 -1.806519,-0.106873 -2.700012,0.001343c-0.92041,0.111481 -1.526947,0.644318 -2.466644,0.832001c-0.661194,0.13205 -1.434418,0.14035 -2.232025,0.155975c-1.434418,0.028107 -2.228424,-0.178741 -3.101318,0.177338c-0.786255,0.320709 -1.499817,0.822906 -2.399994,0.833344c-0.899933,0.010406 -1.808563,-0.020813 -2.585846,0.057159c-0.850281,0.085327 -1.637512,0.224121 -2.562164,0.378845c-0.494019,0.082672 -1.50769,0.246277 -2.951996,0.563995c-0.844299,0.18573 -1.570007,0.391785 -2.196014,0.563995c-1.15976,0.319031 -1.882599,0.430664 -2.803986,0.436005c-0.899994,0.005219 -1.821228,-0.192871 -2.698669,0.001343c-0.815399,0.180481 -1.461823,0.915619 -2.322174,0.977814c-0.710907,0.051392 -1.807159,0.020844 -2.679169,0.020844c-0.899994,0 -1.838226,-0.173553 -2.599976,0.085327c-0.887939,0.301758 -1.599457,0.896667 -2.5,0.914673c-0.899841,0.018005 -1.800171,0 -2.585358,0c-0.940002,0 -1.630646,0 -2.703979,0c-0.910675,0 -1.810669,0 -2.710663,0c-0.900024,0 -1.800018,0 -2.700012,0c-0.799988,0 -1.700012,0 -2.600006,0c-0.899994,0 -1.808136,0.116516 -2.699982,-0.004486c-0.82135,-0.11142 -1.466858,-0.84137 -2.300018,-0.984833c-0.886993,-0.15274 -1.847076,0.083313 -2.699982,-0.363342c-0.752258,-0.393951 -1.630554,-0.253815 -2.414673,-0.732666c-0.803406,-0.490662 -1.175171,-0.847382 -2.110687,-0.925354c-1.016479,-0.084717 -1.702454,-0.7341 -2.574646,-0.953308c-0.878113,-0.220703 -1.768005,-0.199249 -2.425354,-0.461334c-1.010101,-0.402771 -1.845398,-0.222351 -2.653809,-0.59552c-0.771179,-0.355988 -1.322357,-0.96051 -2.220856,-0.979156c-0.900513,-0.018677 -1.636902,-0.542206 -2.400146,-0.878662c-0.742645,-0.327362 -1.70755,-0.592712 -2.415833,-0.837341c-0.943756,-0.325958 -1.918823,-0.041107 -2.77951,-0.288483c-0.767899,-0.220703 -1.225174,-0.98291 -2.104492,-0.995514c-0.908936,-0.013031 -1.935226,-0.159943 -2.605347,-0.352661c-0.74617,-0.214569 -1.875885,-0.436218 -2.573318,-0.672668c-0.865189,-0.293304 -1.626648,-0.879028 -2.392014,-1.058685c-0.800278,-0.187866 -1.767654,-0.533447 -2.695999,-0.749329c-0.784058,-0.182343 -1.768158,0.076233 -2.62883,-0.171143c-0.767899,-0.220703 -1.225174,-0.98291 -2.104492,-0.995514c-0.904434,-0.01297 -1.766678,-0.166656 -2.600006,-0.5c-0.833328,-0.333344 -1.695572,-0.48703 -2.600006,-0.5c-0.879318,-0.012604 -1.336594,-0.774811 -2.104492,-0.995514c-0.860672,-0.247375 -1.846329,0.01593 -2.838165,-0.22583c-0.715851,-0.1745 -1.435455,-0.501068 -2.486664,-0.693329c-0.759979,-0.138977 -1.65007,-0.089478 -2.513336,-0.306671c-0.966934,-0.243286 -1.673431,-0.576965 -2.643005,-0.721497c-0.906113,-0.135071 -1.814331,-0.057159 -2.614334,-0.057159c-0.899994,0 -1.663544,-0.22229 -2.283997,-0.716003c-0.615204,-0.489532 -1.684006,-0.283997 -2.416,-0.283997c-1.166672,0 -2.01265,0.302887 -2.889328,-0.010681c-0.736816,-0.26355 -1.221298,-0.983978 -2.110672,-0.989319c-0.92131,-0.005524 -1.833618,0.015625 -2.505341,-0.004486c-0.99028,-0.029663 -2.00174,-0.323334 -2.685654,-0.642853c-0.827271,-0.386475 -1.851669,-0.352661 -2.559677,-0.352661c-0.743988,0 -1.778656,0 -2.749329,0c-0.800003,0 -1.428925,-0.370728 -2.221497,-0.87851c-0.747025,-0.478607 -1.592834,-0.12149 -2.546509,-0.12149c-0.731995,0 -1.898666,0 -2.690323,0c-0.941666,0 -1.848206,0.106934 -2.741669,-0.001343c-0.919937,-0.111481 -1.527954,-0.756744 -2.452667,-0.941498c-0.683167,-0.136505 -1.711334,-0.057159 -2.647339,-0.057159c-0.899994,0 -1.800003,0 -2.699997,0c-0.800003,0 -1.79689,0.363159 -2.563995,-0.036011c-0.759384,-0.395142 -1.237335,-0.963318 -2.136002,-0.963989c-0.972,-0.000732 -1.842667,0 -2.550674,0c-0.981323,0 -1.938828,0.083435 -2.849335,-0.000153c-0.911438,-0.083679 -1.553619,-0.800598 -2.420822,-0.979004c-0.943634,-0.194122 -1.653839,-0.020844 -2.726501,-0.020844c-0.919342,0 -1.579178,0.048706 -2.585999,0c-0.883102,-0.042725 -1.381897,-0.939117 -2.266678,-1c-0.897873,-0.061798 -1.699997,0.000671 -2.535995,0c-0.847992,-0.000671 -1.751465,0.044281 -2.606827,-0.352661c-0.912186,-0.423309 -1.757172,-0.646942 -2.429169,-0.647339c-1.096008,-0.000671 -1.839005,0.05658 -2.559998,-0.085327c-1.125931,-0.221588 -1.861374,-0.852509 -2.653336,-0.91333c-0.937241,-0.07196 -1.630753,0.01123 -2.70401,-0.001343c-0.890015,-0.010437 -1.34726,-0.774811 -2.115158,-0.995514c-0.860672,-0.247375 -1.837204,0.002991 -2.837997,-0.004639c-0.697571,-0.00531 -1.642609,-0.017273 -2.415833,-0.499847c-0.691803,-0.431732 -1.541672,-0.5 -2.452332,-0.5c-0.910675,0 -1.777451,0.156982 -2.702667,-0.001343c-0.841278,-0.143951 -1.380234,-0.879547 -2.17334,-0.962646c-0.709305,-0.07431 -1.948288,0.120026 -2.713333,-0.202667c-0.782394,-0.330017 -1.606232,-0.741455 -2.410667,-0.844025c-0.927208,-0.118225 -1.553207,-0.600861 -2.567833,-0.867828c-0.801636,-0.210907 -1.672981,-0.10965 -2.505501,-0.405487c-0.882607,-0.313629 -1.765442,-0.590729 -2.715996,-0.717346c-0.809753,-0.107849 -1.452614,-0.798828 -2.300003,-0.977814c-0.880806,-0.186035 -1.821243,0.172028 -2.698669,-0.022186c-0.815422,-0.180481 -1.464142,-0.887329 -2.322166,-0.998657c-0.711464,-0.092316 -1.597031,-0.492706 -2.479164,-0.833344c-0.762062,-0.294281 -1.6791,-0.171967 -2.542664,-0.388c-0.714775,-0.178802 -1.681122,-0.532196 -2.656502,-0.725983c-0.658775,-0.13089 -1.854942,-0.324615 -2.466171,-0.488678c-0.925148,-0.248322 -1.725494,-0.806183 -2.414665,-1.278656c-0.639389,-0.438354 -1.646492,-0.101624 -2.519997,-0.32135c-0.862823,-0.217041 -1.603462,-0.890289 -2.328667,-1.016663c-1.054161,-0.183685 -1.781998,-0.299988 -2.571335,-0.447327c-0.789337,-0.147339 -1.848083,-0.257935 -2.755997,-0.47467c-0.96624,-0.230652 -1.512619,-0.877167 -2.444,-1.020844c-0.889488,-0.137207 -1.81675,0.013 -2.622505,-0.361664c-0.678947,-0.315704 -1.507011,-0.65863 -2.297501,-0.841492c-0.902657,-0.208801 -1.85276,-0.368774 -2.316666,-0.444153c-1.228546,-0.199646 -2.298088,-0.192841 -3.163162,-0.35733c-0.848907,-0.161407 -1.25589,-0.971191 -2.100166,-0.999847c-0.899986,-0.030548 -1.674789,-0.040192 -2.564003,-0.221344c-0.915726,-0.186554 -1.553551,-0.384583 -2.736,-0.612c-0.788261,-0.151581 -1.709259,-0.125549 -2.556,-0.251984c-1.004745,-0.150024 -1.628574,-0.321533 -2.585999,-0.619171c-0.866558,-0.269379 -1.56731,-0.85965 -2.458,-1.174011c-0.856392,-0.302246 -1.733082,0.069794 -2.600002,-0.17865c-0.896584,-0.256927 -1.616337,-0.871155 -2.474667,-0.932159c-0.93771,-0.06665 -1.781673,-0.248108 -2.525333,-0.65802c-0.782398,-0.431274 -1.615929,-0.587341 -2.474667,-0.927338c-0.798996,-0.316345 -1.658588,-0.228363 -2.525333,-0.482483c-0.877453,-0.257263 -1.608543,-0.807343 -2.5,-0.944183c-0.915768,-0.140594 -1.45631,-0.79718 -2.399998,-0.987976c-0.862289,-0.174332 -1.388084,-0.824921 -2.1045,-1.00618c-0.868156,-0.21965 -1.733555,-0.167297 -2.348167,-0.65184c-0.649448,-0.512009 -1.647335,-0.409821 -2.447334,-0.852661c-0.799999,-0.442841 -1.800652,-0.319443 -2.416,-0.783997c-0.683208,-0.515793 -1.434172,-0.64296 -2.058666,-1.141342c-0.607965,-0.485184 -1.457163,-0.646545 -2.050667,-1.149323c-0.633701,-0.536835 -1.498268,-0.885742 -2.270166,-1.372665c-0.702438,-0.443115 -1.287035,-0.740295 -2.093834,-1.063339c-0.789143,-0.315979 -1.412451,-0.626068 -2.174665,-1.02533c-0.758308,-0.397217 -1.237333,-0.962677 -2.150667,-1.049332l-0.506666,-0.793335l-0.694668,-0.405334" id="svg_86" stroke-linecap="null" stroke-linejoin="null" stroke-dasharray="null" stroke-width="5" stroke="#000000" fill="none"/>
  <path d="m13,220c1,-1 1.936409,-0.59726 2.714666,-1.085327c0.74041,-0.464325 1.439135,-0.5923 2.164,-1.136002c0.643023,-0.482315 1.421383,-0.616592 2.068668,-1.131332c0.61911,-0.49234 1.271471,-1.147827 2.052666,-1.480667c0.751539,-0.320206 1.500412,-0.434387 2.166666,-1c0.684223,-0.580856 1.624166,-0.659058 2.3125,-1.166672c0.696047,-0.51329 1.348248,-0.588791 2.163668,-1.057159c0.811985,-0.466385 1.495255,-0.620773 2.1905,-1.109512c0.71591,-0.503265 1.213469,-1.140182 1.966665,-1.549332c0.79752,-0.433212 1.270569,-1.047638 2.200001,-1.283997c0.823624,-0.209442 1.270069,-0.773666 2.099998,-1.221329c0.647652,-0.349335 1.523453,-0.760178 2.300003,-1.20401c0.72393,-0.413757 1.270325,-1.121323 1.957165,-1.517502c0.814568,-0.469849 1.451637,-0.723206 2.163666,-1.036331c0.795544,-0.349854 1.481232,-0.630402 2.183666,-1.073502c0.7719,-0.486923 1.568245,-0.755829 2.242836,-1.299988c0.661091,-0.533264 1.450623,-0.64743 2.052666,-1.147339c0.619736,-0.514603 1.394436,-0.934509 2.198666,-1.416c0.743622,-0.445206 1.282814,-0.809662 2.096836,-1.088501c0.814819,-0.279114 1.332035,-0.989151 2.1045,-1.420837c0.819237,-0.457825 1.553776,-0.816803 2.299999,-1.222c0.76112,-0.413284 1.643559,-0.419601 2.325333,-0.927322c0.640812,-0.477219 1.375458,-0.625549 2.058666,-1.141342c0.615349,-0.464554 1.344994,-0.654617 2.137497,-1.162491c0.746712,-0.478531 1.750664,-0.332474 2.378502,-0.696167c0.769867,-0.445969 1.789337,-0.436005 2.400002,-0.925339c0.610664,-0.489334 1.534767,-0.447037 2.300003,-0.852661c0.845932,-0.44841 1.477104,-0.770798 2.299995,-1.222c0.780136,-0.427765 1.711349,-0.408035 2.400002,-0.925339c0.625671,-0.469986 1.534737,-0.447098 2.300003,-0.852661c0.845886,-0.448303 1.727707,-0.501297 2.399994,-0.704498c0.875282,-0.264557 1.608551,-0.807327 2.5,-0.944168c0.915771,-0.140579 1.456223,-0.797623 2.400002,-0.988007c0.882767,-0.178085 1.603302,-0.553848 2.5,-0.88916c0.850639,-0.318085 1.583961,-0.109772 2.667999,-0.406845c0.741608,-0.203232 1.496094,-0.45845 2.417671,-1.010162c0.636208,-0.380875 1.541191,-0.518524 2.41433,-0.740494c0.862289,-0.219208 1.59697,-0.921295 2.5,-0.964005c0.898994,-0.042526 1.59523,-0.066132 2.462502,-0.520828c0.932472,-0.488876 1.484337,-0.695938 2.4375,-0.958344c0.638763,-0.175858 1.763298,-0.287262 2.568001,-0.546158c0.878799,-0.28273 1.628967,-0.931961 2.531998,-0.97467c0.898994,-0.042526 1.524742,-0.394791 2.233337,-0.833328c0.736519,-0.455826 1.785645,-0.079437 2.666664,-0.166672c0.845703,-0.08374 1.282356,-0.957199 2.199997,-1c0.899025,-0.041931 1.577446,-0.124283 2.400002,-0.574661c0.780396,-0.427292 1.721687,-0.230438 2.598671,-0.426666c0.807045,-0.180573 1.322014,-0.986053 2.201332,-0.998672c0.899918,-0.012909 1.631248,-0.336899 2.400002,-0.716003c0.845207,-0.416809 1.76722,-0.277176 2.699997,-0.450668c0.863129,-0.160538 1.497284,-0.345612 2.447998,-0.549332c0.993332,-0.21286 1.842224,-0.377945 2.552002,-0.783997c0.793686,-0.454056 1.712585,-0.350204 2.599838,-0.500168c0.85202,-0.143997 1.335617,-0.981186 2.200165,-0.999832c0.89978,-0.019394 1.750824,-0.300842 2.399994,-0.647339c0.84938,-0.453354 1.813004,-0.210571 2.699997,-0.363327c0.833145,-0.143478 1.586319,-0.901428 2.300003,-0.984833c0.893936,-0.104462 1.806168,0.083862 2.742676,-0.025833c0.709579,-0.083115 1.543961,-0.41777 2.26799,-0.684006c0.790771,-0.290771 1.562164,-0.639648 2.903336,-1.051666c0.635086,-0.195099 1.736176,-0.169952 2.360672,-0.668335c0.607956,-0.485184 1.455673,-0.539673 2.358658,-0.741333c0.680511,-0.151978 1.398804,-0.479645 2.523666,-0.711823c0.824783,-0.170242 1.821579,0.221558 2.622177,-0.142334c0.773239,-0.351456 1.225311,-0.976913 2.120834,-0.979172c0.899994,-0.002258 1.817368,-0.089478 2.425323,-0.574661c0.624496,-0.498383 1.574692,-0.420013 2.47467,-0.425339c0.90004,-0.005341 1.607208,-0.452942 2.5,-0.833328c0.751541,-0.320206 1.79689,0.196503 2.563995,-0.202667c0.759384,-0.395142 1.237518,-0.946075 2.136002,-0.964005c0.936508,-0.018692 1.776779,-0.301804 2.47467,-0.574661c0.930984,-0.363998 1.925339,-0.425339 2.825333,-0.425339c0.800003,0 1.71228,-0.034698 2.399994,-0.425339c0.815414,-0.463181 1.700012,-0.574661 2.600006,-0.574661c0.800003,0 1.726501,0.183762 2.600006,-0.035995c0.862823,-0.217056 1.59697,-0.921295 2.5,-0.964005c0.898987,-0.042526 1.612305,-0.012878 2.664001,-0.221329c0.596725,-0.118271 1.557755,-0.363617 2.18399,-0.494675c1.176605,-0.246231 2.153275,-0.236206 3.052002,-0.283997c0.803406,-0.042725 1.53717,-0.746948 2.399994,-0.964005c0.873505,-0.219757 1.800003,-0.035995 2.700012,-0.035995c0.899994,0 1.447556,-0.446152 2.185333,-0.914673c0.691467,-0.439117 1.714661,-0.085327 2.514664,-0.085327c0.957169,0 1.852661,0 2.716003,0c0.963165,0 1.805679,0.194901 2.682663,-0.001328c0.807037,-0.180573 1.26886,-0.980667 2.301331,-0.998672c0.857864,-0.014954 1.5,0 2.447998,0c0.996002,0 1.848007,0 2.751999,0c0.900009,0 1.800003,0.002213 2.699997,0c0.913528,-0.002258 1.658661,-0.072464 2.652008,-0.283997c0.625763,-0.133255 1.58223,-0.403763 2.683838,-0.594498c0.73912,-0.127975 1.806824,-0.121506 2.514832,-0.121506c0.743988,0 1.778656,0 2.749329,0c0.800003,0 1.700058,0.01059 2.600006,0c0.906845,-0.010666 1.672974,-0.10611 3.066666,-0.333328c0.647308,-0.10553 1.373398,-0.234207 2.159988,-0.372009c0.826767,-0.144836 1.673294,-0.294907 2.520004,-0.444c0.82663,-0.145554 1.612534,-0.28743 2.986664,-0.517334c0.551346,-0.092239 1.390686,-0.273193 2.453339,-0.330658c0.912003,-0.049316 1.813553,0.011276 2.57634,-0.007172c0.741455,-0.017944 1.631744,-0.079224 2.970337,-0.16217c0.865387,-0.053619 1.842651,-0.117142 2.903992,-0.185989c1.11734,-0.072479 2.262665,-0.147415 3.40799,-0.222c1.11734,-0.072754 2.178558,-0.143219 4.021332,-0.258667c0.732788,-0.045914 1.342621,-0.082581 1.846497,-0.109512c0.414795,-0.022171 0.757599,-0.03978 1.045502,-0.046494c0.941162,-0.021942 1.493866,0.005051 2.441345,-0.031494c0.642548,-0.02478 1.93985,-0.272232 2.567993,-0.553833c0.922119,-0.413406 1.646729,-0.475693 2.932007,-0.59201c0.592102,-0.053589 1.256042,-0.11705 1.973999,-0.185989c0.754028,-0.072403 1.526001,-0.147461 2.298004,-0.222c0.753998,-0.0728 2.727783,-0.260986 3.234497,-0.303833c1.069092,-0.090408 1.9935,-0.121506 2.793488,-0.121506c0.900024,0 1.801453,0.03949 2.64267,-0.010666c0.701416,-0.041824 1.893524,-0.272369 2.658661,-0.414673c0.797546,-0.148331 1.556702,-0.33075 2.757355,-0.489334c0.82016,-0.108322 1.741333,-0.085327 2.641327,-0.085327c0.899994,0 1.702667,0 2.470673,0c1.034668,0 1.778656,0 2.886322,0c0.834015,0 1.743011,0 2.643005,0c0.899994,0 1.799988,0 2.70401,0c0.66748,0 1.559998,0 2.471985,0c0.64801,0 1.824005,0 2.782349,0c0.862976,0 1.716309,0 2.656311,0c0.985352,0 1.885406,-0.010925 2.685333,0c0.762726,0.010422 1.701141,0.161469 2.558014,0.352661c0.642883,0.143448 1.580139,0.421539 2.585999,0.562012c1.049255,0.14653 1.855988,0.085327 2.756012,0.085327c0.899994,0 1.801056,-0.03775 2.617981,0.004501c0.826172,0.04274 1.668701,0.209915 2.39267,0.352661c0.790894,0.155945 1.606567,0.263687 2.903503,0.742676c0.669617,0.247314 1.543823,0.797165 2.385834,0.879333c0.974091,0.095047 1.935272,-0.382553 2.714661,0.106155c0.740448,0.464279 1.184692,0.972443 1.769348,1.084c1.388306,0.264893 1.988098,0.398117 2.637329,0.536011c0.681458,0.144745 1.378357,0.296127 2.757324,0.589325c0.6492,0.138031 1.784882,0.389175 2.638672,0.534668c0.994141,0.169403 1.893555,0.151642 2.803986,0.170837c0.853882,0.01799 1.799225,0.307449 2.387024,0.541504c0.607697,0.241974 2.123871,0.630264 2.826324,0.779495c0.788116,0.167419 1.644135,0.329865 2.544006,0.4935c0.920807,0.167435 1.842346,0.325836 2.742004,0.475494c0.855042,0.142242 2.345764,0.377945 2.943329,0.46701c0.501129,0.074692 1.274567,0.164474 2.057983,0.291c0.945557,0.152695 1.853271,0.380402 2.502014,0.526489c1.174683,0.264526 1.969391,0.364029 2.888,0.428009c0.713654,0.049713 1.357361,0.160446 2.880005,0.440002c0.664612,0.122025 1.38205,0.262405 2.135986,0.40799c0.772064,0.149078 1.543915,0.29921 2.298004,0.444c0.717896,0.137848 2.478363,0.475983 3.259491,0.591003c0.716766,0.105545 1.714508,0.109985 2.614502,0.114334c0.931549,0.004501 1.702484,0.103363 2.766663,0.333328c0.483765,0.104538 1.602539,0.374435 2.210663,0.528c0.62323,0.157379 1.250092,0.30748 2.434692,0.656006c1.025635,0.301758 2.081146,0.745453 2.749329,1.035995c0.908722,0.395142 1.78598,0.443802 2.681488,0.446671c0.955841,0.003067 1.66922,0.460785 2.35318,0.801331c0.89444,0.445343 1.876801,0.500519 2.391998,0.598663c1.069916,0.203842 1.612152,0.249603 3.011993,0.600006c0.694672,0.173889 1.476318,0.722061 2.299988,0.942841c0.871094,0.23349 1.815918,-0.03569 2.585358,0.142487c0.973846,0.22551 1.730042,0.406616 2.572998,0.914673c0.691406,0.416733 1.246338,0.981033 2.141663,1c0.964447,0.020432 1.465118,0.787704 2.261322,0.964005c0.949677,0.210281 1.522675,0.350632 2.305328,0.869324c0.708405,0.469482 1.669617,-0.01535 2.46933,0.238678c0.93631,0.297424 1.269775,1.066925 2.197357,1.594666c0.800629,0.455505 1.838623,0.005219 2.645813,0.354156c0.713989,0.30864 1.349091,0.566498 2.163666,1.036331c0.686859,0.396164 1.396423,0.766403 2.157166,1.028168c0.779572,0.268234 1.307953,1.245529 2,1.629333c0.824493,0.457275 1.737274,0.347382 2.333344,0.932007c0.721283,0.707443 1.274139,1.015991 1.887512,1.332504c0.917511,0.47345 1.963287,0.742554 2.775146,1.1035c0.861298,0.382935 1.67038,0.806946 2.200012,1.363998c0.60556,0.636948 1.046173,1.231766 1.764008,1.692001c0.88324,0.566284 1.844727,0.82518 2.539978,1.213989c0.835663,0.467331 1.671753,0.859039 2.300018,1.222c0.845642,0.488556 1.342194,1.181488 2.104492,1.420837c0.819794,0.257416 1.7995,0.328766 2.653503,0.709839c0.645081,0.287842 1.264801,0.637634 2.377319,1.051834c0.784668,0.29213 1.313629,1.073105 2.06601,1.241501c0.878845,0.196701 1.72226,0.461731 2.494171,0.948654c0.702454,0.443115 1.25531,0.992813 2.004486,1.405334c0.838715,0.461823 1.670105,0.861893 2.300018,1.222c0.864197,0.494034 1.645203,0.869614 2.399994,1.258667c0.716492,0.369308 1.469055,0.752899 2.174652,1.31601c0.787689,0.628616 1.520416,0.899582 2.325348,1.350662c0.799561,0.448074 1.6474,0.868561 2.299988,1.216003c0.786835,0.4189 1.704529,0.528931 2.374664,0.894669c0.973236,0.531174 1.640381,1.064697 2.425354,1.414658c0.830017,0.370041 1.549164,1.005905 2.225342,1.363998c0.674683,0.357285 1.623047,0.737366 2.227325,1.258011c0.656586,0.56572 1.415192,0.915741 2.256317,1.304489c0.992249,0.458588 1.69574,0.754517 2.19101,1.048172c0.73111,0.433502 1.855377,0.913986 2.833344,1.166672c0.672058,0.173645 1.514648,0.247955 2.302338,0.933167c0.683197,0.594299 1.326233,1.127686 2.064331,1.547501c0.700836,0.398621 1.80304,0.67894 2.35199,0.920654c0.953461,0.41983 1.574585,0.764496 2.447998,1.098679c0.922974,0.353134 1.718811,0.833817 2.5,1.166656c0.751526,0.32019 1.61203,0.34201 2.166992,0.87117c0.77652,0.740433 1.578583,0.914047 2.499664,1.12883c0.901093,0.210114 1.750702,0.256149 2.358673,0.741333c0.624512,0.498398 1.375488,0.625565 2.058655,1.141342c0.615356,0.464569 1.738586,-0.127197 2.558838,0.341156c0.813171,0.464325 1.495056,0.621078 2.190491,1.109512c0.71521,0.502319 1.273499,0.722565 2.166687,0.833328c0.899231,0.111511 1.31366,0.759552 2.198669,1.001328c0.797791,0.217941 1.161621,1.046387 1.82666,1.573334c0.626221,0.496216 1.401733,0.592514 2.058655,1.141342c0.618713,0.516907 1.569885,0.766525 2.305359,1.258667c0.669495,0.447983 1.221313,1.014664 2.174683,1.061325l0.488647,0.611343" id="svg_87" stroke-linecap="null" stroke-linejoin="null" stroke-dasharray="null" stroke-width="5" stroke="#000000" fill="none"/>
 </g>
</svg>